<svg xmlns="http://www.w3.org/2000/svg" viewBox="0 0 100 100">
<rect width="100" height="100" rx="22" fill="#FBF7EE"/>
<g fill="#D97C86"><ellipse cx="50" cy="26" rx="9" ry="19" transform="rotate(0 50 50)"/><ellipse cx="50" cy="26" rx="9" ry="19" transform="rotate(45 50 50)"/><ellipse cx="50" cy="26" rx="9" ry="19" transform="rotate(90 50 50)"/><ellipse cx="50" cy="26" rx="9" ry="19" transform="rotate(135 50 50)"/><ellipse cx="50" cy="26" rx="9" ry="19" transform="rotate(180 50 50)"/><ellipse cx="50" cy="26" rx="9" ry="19" transform="rotate(225 50 50)"/><ellipse cx="50" cy="26" rx="9" ry="19" transform="rotate(270 50 50)"/><ellipse cx="50" cy="26" rx="9" ry="19" transform="rotate(315 50 50)"/></g><circle cx="50" cy="50" r="13" fill="#E0A92E"/><circle cx="50" cy="50" r="6" fill="#5a3a1a"/></svg>