<svg viewBox="0 0 325 61.98" xmlns:xlink="http://www.w3.org/1999/xlink" xmlns="http://www.w3.org/2000/svg" data-name="Layer 1" id="Layer_1"><defs><style>.cls-1,.cls-2{fill:#3A3A34;}.cls-2{font-size:12.19px;font-family:Sentinel-Semibold, Sentinel;font-weight:700;letter-spacing:0.04em;}.cls-3{letter-spacing:0.02em;}.cls-4{letter-spacing:0.03em;}.cls-5{letter-spacing:0em;}.cls-6{letter-spacing:0.05em;}.cls-7{letter-spacing:0.01em;}.cls-8{letter-spacing:0.04em;}.cls-9{letter-spacing:-0.01em;}.cls-10{letter-spacing:0.01em;}.cls-11{letter-spacing:0.04em;}.cls-12{letter-spacing:0.04em;}.cls-13{letter-spacing:0.03em;}.cls-14{letter-spacing:0.03em;}.cls-15{letter-spacing:0.02em;}.cls-16{letter-spacing:0.03em;}.cls-17{letter-spacing:0.04em;}.cls-18{letter-spacing:0.03em;}.cls-19{letter-spacing:0.04em;}.cls-20{letter-spacing:0.02em;}.cls-21{letter-spacing:0.02em;}.cls-22{fill:#3A3A34-gradient);}.cls-23{fill:#3A3A34-gradient-2);}.cls-24{fill:#3A3A34-gradient-3);}.cls-25{fill:#3A3A34-gradient-4);}.cls-26{fill:#3A3A34-gradient-5);}.cls-27{fill:#3A3A34-gradient-6);}.cls-28{fill:#3A3A34-gradient-7);}</style><linearGradient gradientUnits="userSpaceOnUse" y2="9.3" x2="54.53" y1="59.52" x1="54.53" id="linear-gradient"><stop stop-opacity="0" stop-color="#cbaa36" offset="0.34"></stop><stop stop-opacity="0.15" stop-color="#cbaa36" offset="0.39"></stop><stop stop-opacity="0.45" stop-color="#cbaa36" offset="0.5"></stop><stop stop-opacity="0.69" stop-color="#cbaa36" offset="0.61"></stop><stop stop-opacity="0.86" stop-color="#cbaa36" offset="0.7"></stop><stop stop-opacity="0.96" stop-color="#cbaa36" offset="0.77"></stop><stop stop-color="#cbaa36" offset="0.82"></stop></linearGradient><linearGradient gradientUnits="userSpaceOnUse" y2="9.3" x2="80.26" y1="59.52" x1="80.26" id="linear-gradient-2"><stop stop-opacity="0" stop-color="#cbaa36" offset="0.18"></stop><stop stop-opacity="0.15" stop-color="#cbaa36" offset="0.25"></stop><stop stop-opacity="0.45" stop-color="#cbaa36" offset="0.4"></stop><stop stop-opacity="0.69" stop-color="#cbaa36" offset="0.54"></stop><stop stop-opacity="0.86" stop-color="#cbaa36" offset="0.66"></stop><stop stop-opacity="0.96" stop-color="#cbaa36" offset="0.76"></stop><stop stop-color="#cbaa36" offset="0.82"></stop></linearGradient><linearGradient xlink:href="#linear-gradient-2" y2="9.3" x2="28.81" y1="59.52" x1="28.81" id="linear-gradient-3"></linearGradient><linearGradient gradientUnits="userSpaceOnUse" y2="9.3" x2="69" y1="59.52" x1="69" id="linear-gradient-4"><stop stop-opacity="0" stop-color="#cbaa36" offset="0.28"></stop><stop stop-color="#cbaa36" offset="0.82"></stop></linearGradient><linearGradient xlink:href="#linear-gradient-4" y2="9.3" x2="40.05" y1="59.52" x1="40.05" id="linear-gradient-5"></linearGradient><linearGradient gradientUnits="userSpaceOnUse" gradientTransform="matrix(-1, 0, 0, 1, 3912, 0)" y2="9.3" x2="3895.29" y1="59.52" x1="3895.29" id="linear-gradient-6"><stop stop-opacity="0" stop-color="#cbaa36" offset="0.1"></stop><stop stop-opacity="0.15" stop-color="#cbaa36" offset="0.18"></stop><stop stop-opacity="0.45" stop-color="#cbaa36" offset="0.35"></stop><stop stop-opacity="0.69" stop-color="#cbaa36" offset="0.5"></stop><stop stop-opacity="0.86" stop-color="#cbaa36" offset="0.64"></stop><stop stop-opacity="0.96" stop-color="#cbaa36" offset="0.75"></stop><stop stop-color="#cbaa36" offset="0.82"></stop></linearGradient><linearGradient xlink:href="#linear-gradient-6" gradientTransform="translate(-10295.09)" y2="9.3" x2="10387.43" y1="59.52" x1="10387.43" id="linear-gradient-7"></linearGradient></defs><title>logo-ascension-new</title><path d="M118.47,28.32l-3-6.9h-9.52l-3.15,6.9H99.41L109,7.16h3.41l9.48,21.16Zm-7.78-17.41-3.36,7.39H114Z" class="cls-1"></path><path d="M136.91,28.81a13.64,13.64,0,0,1-10.59-4.35l2.15-2.07c2.73,2.53,5.17,3.29,8.87,3.29,2.35,0,6.56-.74,6.56-3.8a2.81,2.81,0,0,0-1.42-2.42c-1.11-.71-2.16-.76-5.29-.82L134,18.58c-3.29,0-6.3-1.79-6.3-5.42,0-3.1,2.58-5.17,5.28-6a12.39,12.39,0,0,1,3.66-.54,14.44,14.44,0,0,1,8.81,2.9l-1.73,2.47c-2.3-1.42-3.92-2.22-6.68-2.22-2.07,0-6.22.65-6.22,3.41,0,2.07,1.9,2.44,3.58,2.44h3.15c2.36,0,4.29,0,6.39,1.28a6,6,0,0,1,3,5.28C146.94,27.27,141.06,28.81,136.91,28.81Z" class="cls-1"></path><path d="M165,28.84c-6.53,0-11.93-4.38-11.93-11.17a10.92,10.92,0,0,1,11.3-11A14.61,14.61,0,0,1,174.56,11l-2.3,2a11.85,11.85,0,0,0-7.76-3.21c-4.65,0-8.43,3.21-8.43,8,0,5.14,4.32,8,9.09,8,3.32,0,5.39-1.11,7.69-3.41l2.05,2.22A12.52,12.52,0,0,1,165,28.84Z" class="cls-1"></path><path d="M182.05,28.32V7.14h17.44v3.12H185.15V15.8h7.21v3.07h-7.21v6.36H200v3.09Z" class="cls-1"></path><path d="M223,28.32,210.2,12.19V28.32h-3V7.14h3l12.75,16.19V7.14h3.13V28.32Z" class="cls-1"></path><path d="M243.71,28.81a13.66,13.66,0,0,1-10.59-4.35l2.16-2.07c2.72,2.53,5.17,3.29,8.86,3.29,2.36,0,6.56-.74,6.56-3.8a2.81,2.81,0,0,0-1.42-2.42c-1.11-.71-2.16-.76-5.28-.82l-3.19-.06c-3.29,0-6.3-1.79-6.3-5.42,0-3.1,2.58-5.17,5.28-6a12.4,12.4,0,0,1,3.67-.54,14.43,14.43,0,0,1,8.8,2.9l-1.73,2.47c-2.3-1.42-3.92-2.22-6.68-2.22-2.07,0-6.22.65-6.22,3.41,0,2.07,1.91,2.44,3.58,2.44h3.15c2.36,0,4.29,0,6.4,1.28a6,6,0,0,1,3,5.28C253.74,27.27,247.86,28.81,243.71,28.81Z" class="cls-1"></path><path d="M261.15,28.32V7.14h3V28.32Z" class="cls-1"></path><path d="M283.56,28.84a11.27,11.27,0,0,1-11.39-11.42c0-6.22,5.34-10.91,11.42-10.91A11.26,11.26,0,0,1,295,17.76,11.28,11.28,0,0,1,283.56,28.84Zm0-19.2a8,8,0,0,0-8.35,8.15,8.36,8.36,0,0,0,16.7-.2A8,8,0,0,0,283.56,9.64Z" class="cls-1"></path><path d="M319,28.32,306.24,12.19V28.32h-3V7.14h3L319,23.33V7.14h3.12V28.32Z" class="cls-1"></path><text transform="translate(128.36 47.05)" class="cls-2">T<tspan y="0" x="8.8" class="cls-3">h</tspan><tspan y="0" x="16.28" class="cls-4">e </tspan><tspan y="0" x="25.39" class="cls-5">F</tspan><tspan y="0" x="33.42" class="cls-6">a</tspan><tspan y="0" x="40.37" class="cls-7">i</tspan><tspan y="0" x="44.5" class="cls-8">t</tspan><tspan y="0" x="49.69" class="cls-4">h </tspan><tspan y="0" x="59.84" class="cls-9">F</tspan><tspan y="0" x="67.7" class="cls-10">o</tspan><tspan y="0" x="74.5" class="cls-11">r</tspan><tspan y="0" x="80.47" class="cls-12">m</tspan><tspan y="0" x="91.66" class="cls-13">a</tspan><tspan y="0" x="98.26" class="cls-14">t</tspan><tspan y="0" x="103.36" class="cls-15">i</tspan><tspan y="0" x="107.59" class="cls-10">o</tspan><tspan y="0" x="114.39" class="cls-16">n </tspan><tspan y="0" x="124.66" class="cls-17">L</tspan><tspan y="0" x="132.68" class="cls-18">e</tspan><tspan y="0" x="139.17" class="cls-19">a</tspan><tspan y="0" x="145.98" class="cls-20">d</tspan><tspan y="0" x="153.15" class="cls-21">e</tspan><tspan y="0" x="159.55" class="cls-4">r</tspan></text><path d="M54.53,0a1.35,1.35,0,0,0-1.35,1.35V60.76h2.69V1.35A1.35,1.35,0,0,0,54.53,0Z" class="cls-22"></path><path d="M71.05,26.07c-.24-.7-.46-1.38-.67-2.05-.6-1.91-1.1-3.75-1.51-5.48a1.34,1.34,0,0,0-1.31-1h0a1.35,1.35,0,0,0-1.31,1.66c.42,1.75.92,3.61,1.53,5.56.14.44.28.89.43,1.34A76.92,76.92,0,0,0,92.62,61.81l1.69-2.1A74.09,74.09,0,0,1,71.05,26.07Z" class="cls-23"></path><path d="M41.51,17.51a1.36,1.36,0,0,0-1.31,1c-.4,1.7-.89,3.51-1.48,5.39-.21.69-.45,1.41-.7,2.14A74,74,0,0,1,14.76,59.71l1.7,2.1a76.88,76.88,0,0,0,24.4-35.74c.15-.45.3-.9.43-1.34.61-1.95,1.12-3.81,1.54-5.56a1.35,1.35,0,0,0-1.32-1.66Z" class="cls-24"></path><path d="M64.61,26.07C64,23,63.4,20.14,63,17.51c-.62-3.65-1-6.78-1.32-9a1.34,1.34,0,0,0-1.34-1.19h0A1.35,1.35,0,0,0,59,8.8c.27,2.2.68,5.21,1.26,8.71.44,2.63,1,5.53,1.63,8.56.1.46.2.94.31,1.41,3.66,16.32,8.7,27.83,15,34.23l1.92-1.89C71.76,52.4,67.26,38.2,64.61,26.07Z" class="cls-25"></path><path d="M48.76,7.29a1.36,1.36,0,0,0-1.34,1.19c-.27,2.25-.7,5.38-1.32,9-.45,2.63-1,5.53-1.66,8.56C41.79,38.19,37.3,52.4,30,59.82l1.92,1.89c6.29-6.4,11.33-17.91,15-34.23.1-.47.2-.95.31-1.41.65-3,1.18-5.93,1.62-8.56.59-3.5,1-6.51,1.26-8.71a1.35,1.35,0,0,0-1.34-1.51Z" class="cls-26"></path><path d="M20.69,43.82A63.36,63.36,0,0,1,0,59.55L1.17,62A65.9,65.9,0,0,0,22.73,45.58,68.83,68.83,0,0,0,33.29,29a1.34,1.34,0,0,0-1.23-1.9h0a1.36,1.36,0,0,0-1.23.8A66,66,0,0,1,20.69,43.82Z" class="cls-27"></path><path d="M88.36,43.82a63.36,63.36,0,0,0,20.69,15.73L107.89,62A65.94,65.94,0,0,1,86.32,45.58,68.83,68.83,0,0,1,75.76,29,1.35,1.35,0,0,1,77,27.05h0a1.36,1.36,0,0,1,1.23.8A66.3,66.3,0,0,0,88.36,43.82Z" class="cls-28"></path></svg>