<?xml version="1.0" encoding="UTF-8"?>
<svg width="160px" height="66px" viewBox="0 0 160 66" version="1.1" xmlns="http://www.w3.org/2000/svg" xmlns:xlink="http://www.w3.org/1999/xlink">
    <title>FamRosary_logo1_pos_871c_2728c</title>
    <g id="Key-Pages" stroke="none" stroke-width="1" fill="none" fill-rule="evenodd">
        <g id="FamRosary_logo1_pos_871c_2728c" fill-rule="nonzero">
            <path d="M30.2001633,45.6933878 C29.3100575,45.5016683 28.4365679,45.2396214 27.5879184,44.9097143 C26.0519184,44.2253061 25.4981224,43.3240816 25.4981224,42.1668571 C25.4981224,40.7849796 26.3079184,39.572898 27.6323265,39.5702857 C28.9567347,39.5676735 29.7717551,40.7849796 29.7717551,42.1668571 C29.7717551,43.2300408 29.2493061,44.0868571 27.9693061,44.7477551 C28.2842662,44.8675989 28.6051157,44.9713519 28.9306122,45.0586122 C30.1348571,44.308898 30.8140408,43.3502041 30.8140408,42.1668571 C30.806841,40.4207614 29.3862643,39.0107075 27.6401633,39.0164721 L27.6401633,39.0164721 C25.8940623,39.0107075 24.4734855,40.4207614 24.4662857,42.1668571 C24.4662857,43.412898 25.1637551,44.4421224 26.485551,45.2127347 C27.4050612,45.7142857 28.820898,46.1087347 30.0852245,46.3934694 C32.7366531,46.9812245 33.6509388,50.3118367 34.0636735,52.3128163 C30.7931429,52.9162449 29.3198367,50.8813061 29.1448163,49.674449 L28.8835918,47.979102 C28.8230732,47.3490589 28.2803881,46.8763607 27.648,46.9028571 L27.648,46.9028571 C27.0146703,46.8736673 26.470388,47.3477567 26.4124082,47.979102 L26.1511837,49.674449 C25.9657143,50.8943673 24.5028571,52.9162449 21.2323265,52.3128163 C21.6450612,50.3170612 22.5593469,46.9812245 25.2081633,46.3934694 C25.8707043,46.2530214 26.5240989,46.0724437 27.1647347,45.8527347 C26.8529371,45.7293517 26.5493036,45.58626 26.2556735,45.4243265 C25.8690076,45.5478869 25.474561,45.6456259 25.0749388,45.716898 C21.1983673,46.4013061 20.3102041,50.9413878 20.0150204,53.2427755 C24.7823673,54.1048163 26.7833469,51.6127347 26.9374694,49.899102 C27.0393469,48.9090612 27.1986939,48.0261224 27.1986939,48.0261224 C27.2195918,47.9268571 27.2718367,47.5036735 27.6610612,47.488 C28.0502857,47.4723265 28.1025306,47.9346939 28.1234286,48.0261224 C28.1234286,48.0261224 28.2697143,48.9090612 28.3846531,49.899102 C28.5361633,51.6127347 30.5397551,54.1048163 35.3044898,53.2427755 C34.9622857,50.9387755 34.2386939,46.5658776 30.2001633,45.6933878 Z" id="Path" fill="#3A3A34"></path>
            <path d="M40.8607347,40.5446531 C40.0282776,40.9155377 39.1679372,41.2203689 38.2876735,41.4563265 C36.6445714,41.8037551 35.6754286,41.4040816 34.9831837,40.4662857 C34.1707755,39.3482449 34.1133061,37.8932245 35.1843265,37.1121633 C36.2553469,36.331102 37.6293878,36.8509388 38.4417959,37.9559184 C39.0635102,38.8153469 39.1366531,39.8236735 38.4992653,41.0906122 C38.7892245,41.0122449 39.2176327,40.8711837 39.4605714,40.7745306 C39.9830204,39.4684082 39.9830204,38.2876735 39.2829388,37.3289796 C38.7879597,36.6522871 38.044225,36.2001792 37.2156351,36.0722892 C36.3870452,35.9443992 35.5416066,36.1512237 34.8656327,36.6471837 L34.8525714,36.6471837 C33.4363486,37.6689334 33.1159678,39.645005 34.1368163,41.0618776 C34.8682449,42.0675918 36.0385306,42.4907755 37.5614694,42.3392653 C38.6063673,42.2034286 39.9777959,41.6888163 41.1689796,41.1768163 C43.658449,40.0953469 46.356898,42.2556735 47.8641633,43.627102 C45.5758367,46.0382041 43.1856327,45.2571429 42.3340408,44.3846531 L41.1271837,43.1673469 C40.7070995,42.6948696 39.9919171,42.6307893 39.4945306,43.0210612 L39.4945306,43.0210612 C38.9647005,43.3702109 38.8025595,44.0739716 39.1262041,44.6197551 L39.9098776,46.1453061 C40.4767347,47.242449 40.4819592,49.7371429 37.483102,51.1712653 C36.6419592,49.3139592 35.4220408,46.08 37.2218776,44.0450612 C37.6745901,43.5419949 38.0959559,43.01158 38.4835918,42.4568163 C38.1597115,42.5412703 37.8307707,42.6049645 37.4987755,42.6475102 C37.2571006,42.9734574 36.99537,43.2840444 36.715102,43.5774694 C33.9800816,46.4065306 35.9314286,50.5965714 37.0442449,52.6367347 C41.4066939,50.5338776 41.5634286,47.3417143 40.6804898,45.8631837 C40.181551,45.0037551 39.7792653,44.2017959 39.7792653,44.2017959 C39.7374694,44.1129796 39.5180408,43.7342041 39.8393469,43.4964898 C40.1606531,43.2587755 40.4558367,43.5957551 40.5289796,43.658449 C40.5289796,43.658449 41.1663673,44.288 41.835102,45.0272653 C42.9688163,46.3333878 46.0512653,47.1640816 49.4106122,43.6636735 C47.8040816,41.9918367 44.6406531,38.8754286 40.8607347,40.5446531 Z" id="Path" fill="#3A3A34"></path>
            <path d="M46.4561633,30.1113469 C46.0023513,30.9018561 45.486096,31.6548375 44.9123265,32.363102 C43.786449,33.6091429 42.7598367,33.8599184 41.6574694,33.5020408 C40.3513469,33.0762449 39.4422857,31.9346939 39.8471837,30.6703673 C40.2520816,29.4060408 41.6757551,29.0115918 42.9818776,29.44 C43.9902041,29.7665306 44.6432653,30.5397551 44.8783673,31.9503673 C45.0690612,31.7178776 45.3302857,31.3521633 45.4713469,31.1327347 C45.1291429,29.7560816 44.426449,28.8130612 43.3031837,28.4473469 C42.5047319,28.1904217 41.6368721,28.2616711 40.8910151,28.6453807 C40.145158,29.0290904 39.5825752,29.6937388 39.3273469,30.4927347 L39.3273469,30.4927347 C39.0643534,31.2894439 39.1291805,32.1580563 39.5075234,32.9069007 C39.8858662,33.6557451 40.5466271,34.2232706 41.344,34.4842449 C42.5273469,34.8682449 43.7237551,34.5234286 44.8626939,33.5046531 C45.6228571,32.7862857 46.4300408,31.5585306 47.0987755,30.4457143 C48.4780408,28.0946939 51.9314286,28.267102 53.9559184,28.4917551 C53.5196735,31.7884082 51.1294694,32.5616327 49.9278367,32.3552653 L48.235102,32.0940408 C47.6171866,31.9580076 47.000185,32.326606 46.827102,32.9351837 L46.827102,32.9351837 C46.6066367,33.5292619 46.8887365,34.1920817 47.4697143,34.4450612 L49.0004898,35.2156735 C50.1054694,35.7720816 51.5761633,37.7887347 49.9905306,40.7013878 C48.2194286,39.6930612 45.3302857,37.7939592 45.5915102,35.092898 C45.6624988,34.4196462 45.6921599,33.7426765 45.6803265,33.0657959 C45.4668234,33.3237172 45.2373669,33.5680055 44.9933061,33.7972245 C44.9909154,34.2026947 44.9621198,34.6075788 44.907102,35.0093061 C44.3585306,38.9067755 48.3970612,41.1533061 50.4999184,42.1459592 C52.7934694,37.8801633 51.0406531,35.2078367 49.4550204,34.5312653 C48.5459592,34.1263673 47.7518367,33.7162449 47.7518367,33.7162449 C47.6656327,33.6666122 47.2737959,33.4837551 47.3835102,33.1102041 C47.4932245,32.7366531 47.9425306,32.8254694 48.0365714,32.8489796 C48.0365714,32.8489796 48.9221224,32.9822041 49.8964898,33.1911837 C51.573551,33.5751837 54.5619592,32.4414694 55.2150204,27.6401633 C52.9240816,27.2039184 48.5355102,26.5404082 46.4561633,30.1113469 Z" id="Path" fill="#3A3A34"></path>
            <path d="M44.8522449,18.3797551 C44.9496823,19.2862397 44.975885,20.1989695 44.9306122,21.109551 C44.7529796,22.7813878 44.0685714,23.5885714 42.9662041,23.946449 C41.6600816,24.3722449 40.2494694,23.9777959 39.8315102,22.7186939 C39.413551,21.4595918 40.3252245,20.3102041 41.6417959,19.8817959 C42.6501224,19.5526531 43.6323265,19.7955918 44.6537143,20.7986939 C44.6693878,20.4982857 44.6667755,20.0489796 44.6537143,19.7877551 C43.5670204,18.8760816 42.4463673,18.5260408 41.323102,18.8917551 C40.5257291,19.1527294 39.8649682,19.7202549 39.4866254,20.4690993 C39.1082826,21.2179437 39.0434554,22.0865561 39.306449,22.8832653 L39.306449,22.8963265 C39.5622736,23.6949079 40.1249456,24.359104 40.8706132,24.7427162 C41.6162808,25.1263284 42.4838243,25.1979133 43.2822857,24.9417143 C44.4656327,24.555102 45.2310204,23.572898 45.5549388,22.0682449 C45.7456327,21.0390204 45.6829388,19.5709388 45.5549388,18.2778776 C45.2937143,15.5768163 48.1828571,13.6777143 49.9539592,12.6667755 C51.5395918,15.5898776 50.058449,17.6300408 48.9639184,18.1524898 L47.4331429,18.9361633 C46.8531644,19.1901329 46.5714716,19.8519964 46.7905306,20.4460408 L46.7905306,20.4460408 C46.9613754,21.0563328 47.5801664,21.4260002 48.1985306,21.2871837 L49.8912653,21.0259592 C51.1085714,20.8274286 53.483102,21.5928163 53.9193469,24.8894694 C51.8948571,25.1141224 48.4336327,25.2734694 47.0622041,22.9355102 C46.7244804,22.3489388 46.3510992,21.7836327 45.9441633,21.2427755 C45.9221172,21.5775863 45.8802478,21.9107963 45.8187755,22.2406531 C46.0556901,22.5699236 46.270371,22.9146348 46.4613878,23.2724898 C48.3082449,26.7467755 52.8953469,26.1903673 55.1810612,25.7593469 C54.528,20.9580408 51.5395918,19.8243265 49.8625306,20.2083265 C48.8881633,20.4173061 48.0026122,20.5505306 48.0026122,20.5505306 C47.9033469,20.5505306 47.4801633,20.6445714 47.349551,20.2762449 C47.2189388,19.9079184 47.636898,19.7198367 47.7178776,19.6702041 C47.7178776,19.6702041 48.501551,19.2600816 49.4210612,18.8551837 C51.0040816,18.1786122 52.756898,15.5062857 50.4659592,11.2378776 C48.3761633,12.2279184 44.4342857,14.2706939 44.8522449,18.3797551 Z" id="Path" fill="#3A3A34"></path>
            <path d="M38.3242449,11.9980408 C39.1627755,13.4530612 39.0844082,14.5110204 38.4026122,15.4462041 C37.5902041,16.5642449 36.224,17.0684082 35.1503673,16.2925714 C34.0767347,15.5167347 34.1342041,14.0538776 34.9466122,12.9332245 C35.5709388,12.0764082 36.5139592,11.6950204 37.9219592,11.9066122 C37.7573878,11.6453878 37.4909388,11.2901224 37.3263673,11.0889796 C35.9131429,10.9897143 34.7977143,11.3658776 34.1028571,12.3219592 C33.0820086,13.7388317 33.4023894,15.7149033 34.8186122,16.7366531 L34.8316735,16.7366531 C35.5079683,17.2323409 36.3536228,17.4387407 37.1822354,17.3103572 C38.0108481,17.1819737 38.7543943,16.7293465 39.2489796,16.0522449 C39.9804082,15.0465306 40.0326531,13.8004898 39.4057143,12.395102 C38.9564082,11.4494694 38.0421224,10.3053061 37.1879184,9.32310204 C35.3880816,7.28816327 36.608,4.05420408 37.4491429,2.19689796 C40.448,3.63102041 40.4453878,6.144 39.8759184,7.22285714 L39.0922449,8.74840816 C38.7730899,9.29404394 38.9345917,9.99388512 39.4605714,10.3444898 L39.4605714,10.3444898 C39.9560783,10.7394659 40.6743147,10.6762611 41.0932245,10.2008163 L42.3000816,8.9835102 C43.1673469,8.10579592 45.5392653,7.32995918 47.8302041,9.74106122 C46.3229388,11.1124898 43.6244898,13.2728163 41.1350204,12.1913469 C40.516208,11.9196074 39.8810741,11.6866669 39.2333061,11.4938776 C39.4140945,11.7756227 39.5763952,12.0688111 39.7191837,12.3715918 C40.1043152,12.4995478 40.4804486,12.6531429 40.8450612,12.8313469 C44.3820408,14.5554286 47.7675102,11.4076735 49.3609796,9.71755102 C46.0120816,6.2197551 42.9296327,7.05306122 41.7959184,8.35918367 C41.1324082,9.09844898 40.4897959,9.72538776 40.4897959,9.72538776 C40.4166531,9.79330612 40.1214694,10.1093878 39.797551,9.88995918 C39.4736327,9.67053061 39.7035102,9.27085714 39.7400816,9.18204082 C39.7400816,9.18204082 40.1423673,8.38269388 40.6413061,7.52065306 C41.5242449,6.04473469 41.3675102,2.85257143 37.0050612,0.747102041 C35.8896327,2.78726531 33.9017143,6.75526531 36.6550204,9.83510204 C37.2664921,10.5118581 37.8245726,11.2350047 38.3242449,11.9980408 Z" id="Path" fill="#3A3A34"></path>
            <path d="M25.0096327,7.73485714 C25.8997385,7.92657658 26.7732281,8.18862346 27.6218776,8.51853061 C29.1552653,9.20293878 29.7116735,10.1041633 29.7116735,11.2613878 C29.7116735,12.6432653 28.9018776,13.8553469 27.5774694,13.8579592 C26.2530612,13.8605714 25.4406531,12.6432653 25.4406531,11.2613878 C25.4406531,10.1982041 25.963102,9.34138776 27.243102,8.6804898 C26.9609796,8.57077551 26.5325714,8.43493878 26.2791837,8.36963265 C25.077551,9.11934694 24.3957551,10.0780408 24.3957551,11.2613878 C24.4029549,13.0074835 25.8235317,14.4175374 27.5696327,14.4117728 L27.5853061,14.4117728 C29.3314071,14.4175374 30.7519839,13.0074835 30.7591837,11.2613878 C30.7591837,10.0153469 30.0617143,8.98612245 28.7399184,8.2155102 C27.8204082,7.71395918 26.388898,7.3195102 25.1376327,7.03477551 C22.4914286,6.43657143 21.5797551,3.10073469 21.1591837,1.10759184 C24.427102,0.50155102 25.9030204,2.5364898 26.0780408,3.74595918 L26.3392653,5.43869388 C26.4010379,6.0680913 26.9429365,6.54010453 27.5748571,6.51493878 L27.5748571,6.51493878 C28.2081869,6.54412861 28.7524691,6.07003919 28.810449,5.43869388 L29.0716735,3.74595918 C29.2597551,2.52342857 30.7226122,0.50155102 33.9931429,1.10759184 C33.5804082,3.10073469 32.6661224,6.43657143 30.0146939,7.02432653 C29.3554223,7.16847125 28.7055175,7.35253825 28.0685714,7.5755102 C28.380369,7.69889325 28.6840025,7.84198488 28.9776327,8.00391837 C29.3642114,7.88005079 29.7586787,7.78230669 30.1583673,7.71134694 C34.0349388,7.02693878 34.9204898,2.48685714 35.2156735,0.185469388 C30.4509388,-0.676571429 28.4473469,1.8155102 28.2958367,3.52914286 C28.1913469,4.51918367 28.0346122,5.40212245 28.0346122,5.40212245 C28.0163265,5.50138776 27.9640816,5.92457143 27.5722449,5.9402449 C27.1804082,5.95591837 27.1307755,5.49616327 27.1098776,5.40212245 C27.1098776,5.40212245 26.9635918,4.51918367 26.8617143,3.52914286 C26.7075918,1.8155102 24.7066122,-0.676571429 19.9392653,0.185469388 C20.244898,2.48163265 20.971102,6.86236735 25.0096327,7.73485714 Z" id="Path" fill="#3A3A34"></path>
            <path d="M14.3490612,12.8862041 C15.1811735,12.5137599 16.0415691,12.2080356 16.9221224,11.9719184 C18.5652245,11.6244898 19.5343673,12.0267755 20.224,12.9619592 C21.0364082,14.08 21.0938776,15.5350204 20.0254694,16.3186939 C18.9570612,17.1023673 17.5804082,16.5799184 16.768,15.4723265 C16.1436735,14.6155102 16.0705306,13.6045714 16.7079184,12.3376327 C16.4179592,12.416 15.9921633,12.5570612 15.7492245,12.6537143 C15.2267755,13.9598367 15.2267755,15.1431837 15.9242449,16.0992653 C16.4197012,16.776129 17.1638882,17.2282938 17.9929046,17.356174 C18.8219209,17.4840542 19.6677711,17.2771611 20.3441633,16.7810612 L20.3441633,16.7810612 C21.0254374,16.2912603 21.4837973,15.5504876 21.6180824,14.7222323 C21.7523676,13.893977 21.5515385,13.0463298 21.0599184,12.3663673 C20.3284898,11.3606531 19.1582041,10.9374694 17.6378776,11.0889796 C16.5929796,11.2248163 15.221551,11.7394286 14.0277551,12.2514286 C11.5487347,13.322449 8.85028571,11.1542857 7.34302041,9.7802449 C9.63395918,7.36914286 12.0163265,8.15020408 12.8757551,9.02530612 L14.0826122,10.24 C14.5014278,10.7149889 15.2186808,10.7792547 15.7152653,10.3862857 L15.7152653,10.3862857 C16.2441735,10.0363066 16.405126,9.33271413 16.0809796,8.78759184 L15.2973061,7.26465306 C14.730449,6.1675102 14.7252245,3.67020408 17.7266939,2.23869388 C18.5652245,4.096 19.7851429,7.32995918 17.9879184,9.36228571 C17.5332486,9.86574649 17.1092982,10.3961207 16.7183673,10.9505306 C17.0429251,10.8657868 17.3728113,10.8029514 17.7057959,10.762449 C17.9453559,10.4348349 18.2072002,10.124113 18.4894694,9.8324898 C21.227102,7.00081633 19.2809796,2.81077551 18.1629388,0.783673469 C13.8004898,2.87346939 13.6463673,6.06563265 14.5293061,7.54416327 C15.0282449,8.40359184 15.4279184,9.20555102 15.4279184,9.20555102 C15.4697143,9.29436735 15.6891429,9.67314286 15.370449,9.91085714 C15.0517551,10.1485714 14.7513469,9.81159184 14.6808163,9.74889796 C14.6808163,9.74889796 14.0434286,9.11934694 13.3746939,8.38008163 C12.2435918,7.07395918 9.16114286,6.24326531 5.79918367,9.74367347 C7.40832653,11.4364082 10.5691429,14.5528163 14.3490612,12.8862041 Z" id="Path" fill="#3A3A34"></path>
            <path d="M8.75102041,23.316898 C9.20627743,22.5281245 9.72246008,21.7761224 10.2948571,21.0677551 C11.4207347,19.819102 12.4499592,19.5683265 13.5497143,19.9262041 C14.8558367,20.352 15.7675102,21.493551 15.36,22.7578776 C14.9524898,24.0222041 13.5444898,24.4166531 12.2253061,23.9908571 C11.2143673,23.6617143 10.5639184,22.8884898 10.3262041,21.4778776 C10.1381224,21.7103673 9.87428571,22.0760816 9.73583673,22.2955102 C10.0780408,23.6721633 10.7807347,24.6151837 11.9013878,24.980898 C12.7008687,25.239508 13.5704186,25.1691414 14.3179141,24.7853454 C15.0654096,24.4015493 15.6293234,23.7359145 15.8850612,22.9355102 L15.8850612,22.9355102 C16.1481694,22.139143 16.0837044,21.2708256 15.7058822,20.5220419 C15.3280601,19.7732582 14.6679137,19.2055104 13.8710204,18.944 C12.6902857,18.5469388 11.4938776,18.8917551 10.3523265,19.9105306 C9.59216327,20.628898 8.78497959,21.8566531 8.1162449,22.9694694 C6.73959184,25.3204898 3.28620408,25.1480816 1.25910204,24.9234286 C1.69534694,21.6267755 4.08555102,20.853551 5.28979592,21.0599184 L6.98253061,21.3211429 C7.5997965,21.4570024 8.21598505,21.0882055 8.38791837,20.48 L8.38791837,20.48 C8.61100998,19.8865784 8.32794395,19.222639 7.74530612,18.9727347 L6.21453061,18.1890612 C5.11216327,17.6326531 3.64146939,15.6186122 5.22710204,12.7033469 C6.99559184,13.7116735 9.88473469,15.6107755 9.62612245,18.314449 C9.553722,18.9875948 9.5240571,19.6646525 9.53730612,20.341551 C9.75012395,20.0822062 9.97961706,19.8370063 10.2243265,19.6075102 C10.2267173,19.20204 10.2555129,18.7971559 10.3105306,18.3954286 C10.859102,14.5136327 6.82057143,12.277551 4.71771429,11.274449 C2.42416327,15.5402449 4.17959184,18.2151837 5.74693878,18.8891429 C6.656,19.2940408 7.45273469,19.7067755 7.45273469,19.7067755 C7.53893878,19.7537959 7.93077551,19.9366531 7.82106122,20.3128163 C7.71134694,20.6889796 7.25942857,20.5949388 7.16538776,20.5740408 C7.16538776,20.5740408 6.27983673,20.4408163 5.30808163,20.2318367 C3.64146939,19.8530612 0.653061224,20.9946122 0,25.7933061 C2.28571429,26.2243265 6.67428571,26.8878367 8.75102041,23.316898 Z" id="Path" fill="#3A3A34"></path>
            <path d="M10.3549388,35.0484898 C10.2608457,34.1417632 10.2363931,33.2291581 10.2817959,32.3186939 C10.4594286,30.6468571 11.1438367,29.8396735 12.2435918,29.4817959 C13.5497143,29.056 14.9603265,29.450449 15.3782857,30.709551 C15.7962449,31.9686531 14.8819592,33.1206531 13.568,33.546449 C12.5570612,33.8755918 11.5748571,33.6326531 10.5560816,32.629551 C10.5404082,32.9299592 10.5560816,33.3792653 10.5560816,33.6404898 C11.6401633,34.5521633 12.7608163,34.9048163 13.8866939,34.539102 C15.5453245,33.9932048 16.4479581,32.2066452 15.9033469,30.5475918 L15.9033469,30.5319184 C15.647579,29.7334027 15.0847725,29.0693705 14.3389768,28.6861824 C13.593181,28.3029943 12.7256184,28.2321062 11.9275102,28.4891429 C10.741551,28.8731429 9.97877551,29.8553469 9.6522449,31.3626122 C9.46155102,32.3918367 9.5242449,33.8625306 9.6522449,35.1529796 C9.91346939,37.8540408 7.02171429,39.7531429 5.25322449,40.7640816 C3.66759184,37.8409796 5.14612245,35.8008163 6.24065306,35.2783673 L7.77142857,34.4946939 C8.35004957,34.2407981 8.63147127,33.5807155 8.41404082,32.9874286 L8.41404082,32.9874286 C8.25228483,32.36407 7.62261929,31.9837196 6.99559184,32.1306122 L5.30285714,32.3918367 C4.08293878,32.5929796 1.70840816,31.8249796 1.27216327,28.5283265 C3.29926531,28.3036735 6.75787755,28.1443265 8.12930612,30.4822857 C8.46786347,31.068933 8.8421185,31.6342413 9.24995918,32.1750204 C9.26960488,31.8399843 9.31149309,31.506624 9.37534694,31.1771429 C9.13731741,30.8440699 8.92260134,30.4949381 8.73273469,30.1322449 C6.88587755,26.6866939 2.29877551,27.243102 0.0130612245,27.6897959 C0.666122449,32.4884898 3.65453061,33.6222041 5.33159184,33.2382041 C6.30334694,33.0292245 7.18889796,32.896 7.18889796,32.896 C7.28816327,32.896 7.71134694,32.8019592 7.84457143,33.1702857 C7.97779592,33.5386122 7.55722449,33.7266939 7.4762449,33.7763265 C7.4762449,33.7763265 6.6795102,34.1890612 5.77044898,34.5913469 C4.18742857,35.2679184 2.43722449,37.9402449 4.72555102,42.2086531 C6.83363265,41.2003265 10.7755102,39.157551 10.3549388,35.0484898 Z" id="Path" fill="#3A3A34"></path>
            <path d="M16.885551,41.4302041 C16.0444082,39.9751837 16.1253878,38.9172245 16.8045714,37.9820408 C17.6169796,36.864 18.9857959,36.3598367 20.0594286,37.1356735 C21.1330612,37.9115102 21.0755918,39.3769796 20.2631837,40.4950204 C19.6388571,41.3518367 18.6958367,41.7332245 17.2878367,41.5216327 C17.4720843,41.8043001 17.6708824,42.0772116 17.8834286,42.3392653 C19.2966531,42.4385306 20.4094694,42.0649796 21.1043265,41.1062857 C21.5958086,40.4267404 21.7965693,39.5795033 21.6622738,38.7516742 C21.5279782,37.923845 21.0696742,37.1835254 20.3885714,36.6942041 L20.3885714,36.6942041 C19.7118583,36.1983765 18.8657925,35.9919081 18.0367534,36.1202818 C17.2077143,36.2486554 16.4637159,36.7013395 15.9686531,37.3786122 C15.2372245,38.3843265 15.1849796,39.6303673 15.8119184,41.0357551 C16.2612245,41.9813878 17.1781224,43.125551 18.0323265,44.1103673 C19.8321633,46.1426939 18.6096327,49.3766531 17.771102,51.2339592 C14.7722449,49.7998367 14.7748571,47.2894694 15.3417143,46.208 L16.1253878,44.682449 C16.4464403,44.1376846 16.2858895,43.4369949 15.7596735,43.0863673 L15.7596735,43.0863673 C15.2641666,42.6913912 14.5459302,42.754596 14.1270204,43.2300408 L12.9201633,44.4473469 C12.0502857,45.3250612 9.67836735,46.100898 7.38742857,43.6897959 C8.89469388,42.3183673 11.5931429,40.1580408 14.0826122,41.2395102 C14.7017404,41.5149061 15.3367778,41.7530451 15.9843265,41.9526531 C15.804243,41.6700457 15.642811,41.3759776 15.5010612,41.0723265 C15.1128199,40.9386986 14.7340523,40.7789878 14.3673469,40.5942857 C10.8303673,38.8702041 7.4475102,42.0179592 5.85142857,43.7106939 C9.20293878,47.2084898 12.2853878,46.3699592 13.4269388,45.0742857 C14.0930612,44.3324082 14.7330612,43.7054694 14.7330612,43.7054694 C14.8062041,43.637551 15.1013878,43.3214694 15.4226939,43.540898 C15.744,43.7603265 15.5193469,44.16 15.4801633,44.2488163 C15.4801633,44.2488163 15.0804898,45.0481633 14.581551,45.9102041 C13.6986122,47.3861224 13.8527347,50.5782857 18.2151837,52.6837551 C19.3332245,50.6435918 21.3211429,46.6755918 18.5652245,43.5957551 C17.950168,42.9184328 17.3885915,42.1944097 16.885551,41.4302041 L16.885551,41.4302041 Z" id="Path" fill="#3A3A34"></path>
            <path d="M64.5381224,53.6398367 C63.882449,53.5640816 63.8119184,53.5301224 63.8119184,52.8352653 L63.8119184,51.2130612 L66.3510204,51.2130612 L66.3510204,52.8352653 C66.3510204,53.5327347 66.293551,53.5536327 65.6169796,53.6398367 L65.6169796,53.9167347 L68.0542041,53.9167347 L68.0542041,53.6398367 C67.3906939,53.5719184 67.3201633,53.5327347 67.3201633,52.8352653 L67.3201633,49.556898 C67.3201633,48.8594286 67.3828571,48.8124082 68.0542041,48.7444898 L68.0542041,48.4832653 L65.6169796,48.4832653 L65.6169796,48.7444898 C66.2648163,48.8097959 66.3510204,48.8620408 66.3510204,49.556898 L66.3510204,50.816 L63.8223673,50.816 L63.8223673,49.556898 C63.8223673,48.8620408 63.8955102,48.8045714 64.5485714,48.7444898 L64.5485714,48.4832653 L62.1191837,48.4832653 L62.1191837,48.7444898 C62.7748571,48.8019592 62.8506122,48.8594286 62.8506122,49.556898 L62.8506122,52.8352653 C62.8506122,53.5327347 62.7670204,53.5666939 62.1191837,53.6398367 L62.1191837,53.9167347 L64.5485714,53.9167347 L64.5381224,53.6398367 Z" id="Path" fill="#3A3A34"></path>
            <path d="M72.2599184,54.0421224 C73.8272653,54.0421224 75.0759184,52.9188571 75.0759184,51.1268571 C75.0924793,50.3865955 74.8058814,49.671704 74.282553,49.1478824 C73.7592247,48.6240608 73.0446035,48.3367895 72.3043265,48.3526531 C71.533063,48.3263729 70.7852525,48.620134 70.2380882,49.16433 C69.6909239,49.7085259 69.3930993,50.4547274 69.4151837,51.2261224 C69.400556,51.9823862 69.6965299,52.7115967 70.2340972,53.243734 C70.7716645,53.7758713 71.5038421,54.064427 72.2599184,54.0421224 Z M72.1606531,48.6948571 C73.1872653,48.6948571 73.9657143,49.6561633 73.9657143,51.3593469 C73.9657143,52.9266939 73.2813061,53.6946939 72.3983673,53.6946939 C71.2411429,53.6946939 70.548898,52.5087347 70.548898,51.0302041 C70.5306122,49.5098776 71.2672653,48.6948571 72.1606531,48.6948571 Z" id="Shape" fill="#3A3A34"></path>
            <path d="M80.1802449,53.2610612 C79.9817143,53.4778776 79.8563265,53.5562449 79.3965714,53.5562449 C79.3547755,53.5562449 78.8741224,53.5562449 78.858449,53.5562449 C78.3908571,53.5562449 78.3516735,53.3786122 78.3516735,52.8953469 L78.3516735,49.5673469 C78.3516735,48.8542041 78.4404898,48.8071837 79.1013878,48.7444898 L79.1013878,48.4832653 L76.651102,48.4832653 L76.651102,48.7444898 C77.2963265,48.8019592 77.3799184,48.8594286 77.3799184,49.5673469 L77.3799184,52.8195918 C77.3799184,53.5275102 77.3146122,53.5771429 76.564898,53.6398367 L76.564898,53.9167347 L80.6060408,53.9167347 C80.6844082,53.6737959 80.9273469,52.7934694 80.9874286,52.4773878 L80.6948571,52.3911837 C80.5693919,52.7060379 80.3957853,52.9994948 80.1802449,53.2610612 Z" id="Path" fill="#3A3A34"></path>
            <path d="M87.1444898,48.4702041 L85.2192653,48.4702041 L85.2192653,48.7314286 C85.8488163,48.8045714 85.8958367,48.9012245 85.7234286,49.2747755 C85.4883265,49.7632653 85.0520816,50.6148571 84.7777959,51.1268571 C84.4460408,50.5077551 84.0698776,49.7998367 83.7616327,49.2094694 C83.6127347,48.9195102 83.5892245,48.8124082 84.1691429,48.7314286 L84.1691429,48.4702041 L81.8886531,48.4702041 L81.8886531,48.7314286 C82.411102,48.7862857 82.5208163,48.8907755 82.836898,49.4471837 C83.317551,50.2857143 83.6205714,50.8316735 83.8817959,51.348898 C83.965584,51.4768781 84.0092453,51.6269638 84.0071837,51.7799184 L84.0071837,52.7960816 C84.0071837,53.514449 83.9497143,53.5353469 83.2417959,53.6267755 L83.2417959,53.9036735 L85.7835102,53.9036735 L85.7835102,53.6267755 C85.0546939,53.5457959 84.9841633,53.5092245 84.9841633,52.7960816 L84.9841633,51.7511837 C84.9745308,51.5891264 85.0117092,51.4277179 85.0912653,51.2862041 C85.5013878,50.5025306 85.7835102,49.9800816 86.1178776,49.4158367 C86.4522449,48.8515918 86.5880816,48.7862857 87.1444898,48.7235918 L87.1444898,48.4702041 Z" id="Path" fill="#3A3A34"></path>
            <path d="M94.8244898,54.0421224 C95.3433689,54.0258297 95.8590869,53.9549076 96.363102,53.8305306 C96.545379,53.4053566 96.70068,52.9691178 96.8280816,52.5244082 L96.5407347,52.4173061 C96.0992653,53.3002449 95.6525714,53.6816327 94.8819592,53.6816327 C93.6411429,53.6816327 92.8313469,52.6367347 92.8313469,51.0693878 C92.8313469,49.7240816 93.4948571,48.7053061 94.7826939,48.7053061 C95.0544013,48.70074 95.3245837,48.7468039 95.5794286,48.8411429 C96.0156735,49.0187755 96.245551,49.3426939 96.4179592,49.9565714 L96.7183673,49.8964898 C96.6556735,49.5046531 96.5982041,48.9377959 96.5590204,48.5511837 C96.0383173,48.4383762 95.5084938,48.3728039 94.976,48.3552653 C93.0246531,48.3552653 91.7133061,49.5307755 91.7133061,51.2548571 C91.7133061,52.6445714 92.682449,54.0421224 94.8244898,54.0421224 Z" id="Path" fill="#3A3A34"></path>
            <path d="M100.221388,51.563102 C100.56098,51.563102 100.673306,51.6127347 100.819592,51.8582857 C101.09649,52.3258776 101.365551,52.8457143 101.689469,53.2924082 C102.013388,53.739102 102.311184,53.9141224 103.173224,53.9611429 C103.277714,53.9611429 103.374367,53.9742041 103.450122,53.9742041 L103.497143,53.7129796 C103.274358,53.6496698 103.077024,53.518114 102.932898,53.3368163 C102.695307,53.0645462 102.478739,52.7746239 102.285061,52.469551 C102.023837,52.0881633 101.692082,51.5343673 101.556245,51.2809796 C102.138776,51.0406531 102.616816,50.6200816 102.616816,49.8860408 C102.637199,49.4424667 102.422909,49.020833 102.052571,48.7758367 C101.720816,48.5511837 101.300245,48.4728163 100.613224,48.4728163 L98.314449,48.4728163 L98.314449,48.7340408 C98.9570612,48.7967347 99.0458776,48.8594286 99.0458776,49.5438367 L99.0458776,52.8117551 C99.0458776,53.5066122 98.9779592,53.5562449 98.314449,53.6293878 L98.314449,53.9062857 L100.733388,53.9062857 L100.733388,53.6293878 C100.085551,53.5562449 99.9993469,53.5066122 99.9993469,52.8117551 L99.9993469,51.5474286 L100.221388,51.563102 Z M99.9993469,49.2120816 C99.9993469,49.024 100.020245,48.9299592 100.085551,48.875102 C100.209385,48.8029975 100.353497,48.7736244 100.495673,48.7915102 C101.044245,48.7915102 101.592816,49.1154286 101.592816,50.0062041 C101.623076,50.3894623 101.465265,50.7635337 101.169633,51.0093061 C100.917195,51.1867054 100.609363,51.2673721 100.302367,51.2365714 L99.9993469,51.2365714 L99.9993469,49.2120816 Z" id="Shape" fill="#3A3A34"></path>
            <path d="M107.376327,48.3526531 C106.605289,48.3263346 105.857717,48.6201715 105.310958,49.1644566 C104.764199,49.7087417 104.466974,50.4549733 104.489796,51.2261224 C104.472263,51.9834874 104.76668,52.7147897 105.304088,53.2487396 C105.841495,53.7826894 106.574682,54.0723803 107.331918,54.0499592 C108.899265,54.0499592 110.147918,52.9266939 110.147918,51.1346939 C110.166654,50.3930892 109.881017,49.6761355 109.357443,49.1505884 C108.83387,48.6250413 108.117997,48.3367085 107.376327,48.3526531 L107.376327,48.3526531 Z M107.459918,53.6946939 C106.302694,53.6946939 105.613061,52.5087347 105.613061,51.0302041 C105.613061,49.5098776 106.341878,48.6948571 107.232653,48.6948571 C108.261878,48.6948571 109.037714,49.6561633 109.037714,51.3593469 C109.037714,52.9319184 108.353306,53.6946939 107.459918,53.6946939 L107.459918,53.6946939 Z" id="Shape" fill="#3A3A34"></path>
            <path d="M115.414204,52.4016327 C115.414204,51.5866122 114.904816,51.1738776 113.959184,50.6958367 C113.240816,50.3327347 112.914286,50.048 112.914286,49.536 C112.898423,49.3072467 112.98092,49.0825934 113.141053,48.9184688 C113.301187,48.7543443 113.523742,48.6663438 113.752816,48.6765714 C114.53649,48.6765714 114.766367,49.259102 114.923102,49.802449 L115.215673,49.7397551 C115.147755,49.2173061 115.100735,48.8124082 115.066776,48.5067755 C114.687197,48.4166237 114.299493,48.3649882 113.909551,48.3526531 C112.718367,48.3526531 112.062694,49.0501224 112.062694,49.8703673 C112.062694,50.6906122 112.598204,51.1137959 113.473306,51.5866122 C114.191673,51.9732245 114.518204,52.2475102 114.518204,52.8039184 C114.537614,53.0462894 114.450864,53.2851518 114.280443,53.4585798 C114.110023,53.6320079 113.872714,53.722923 113.630041,53.7077551 C112.786286,53.7077551 112.36049,52.8770612 112.193306,52.3337143 L111.898122,52.4042449 C111.955592,52.8248163 112.08098,53.5614694 112.138449,53.7730612 C112.571109,53.9341266 113.027465,54.0223966 113.48898,54.0342857 C114.620082,54.0421224 115.414204,53.3420408 115.414204,52.4016327 Z" id="Path" fill="#3A3A34"></path>
            <path d="M119.559837,50.6958367 C118.841469,50.3327347 118.514939,50.048 118.514939,49.536 C118.498289,49.3075036 118.58016,49.0827959 118.739898,48.9185654 C118.899636,48.754335 119.121987,48.6662642 119.350857,48.6765714 C120.134531,48.6765714 120.364408,49.259102 120.521143,49.802449 L120.813714,49.7397551 C120.745796,49.2173061 120.698776,48.8124082 120.664816,48.5067755 C120.285238,48.4166237 119.897534,48.3649882 119.507592,48.3526531 C118.31902,48.3526531 117.660735,49.0501224 117.660735,49.8703673 C117.660735,50.6906122 118.196245,51.1137959 119.071347,51.5866122 C119.792327,51.9732245 120.116245,52.2475102 120.116245,52.8039184 C120.136555,53.0465136 120.0501,53.2859101 119.879471,53.4595499 C119.708843,53.6331897 119.470995,53.7238191 119.228082,53.7077551 C118.384327,53.7077551 117.961143,52.8770612 117.793959,52.3337143 L117.496163,52.4042449 C117.553633,52.8248163 117.67902,53.5614694 117.73649,53.7730612 C118.16915,53.9341266 118.625506,54.0223966 119.08702,54.0342857 C120.233796,54.0342857 121.030531,53.3342041 121.030531,52.3937959 C121.017469,51.5866122 120.505469,51.1738776 119.559837,50.6958367 Z" id="Path" fill="#3A3A34"></path>
            <path d="M64.8672653,59.0210612 L62.1087347,59.0210612 L62.1087347,59.2979592 C62.7617959,59.3554286 62.8401633,59.4076735 62.8401633,60.1469388 L62.8401633,63.3338776 C62.8401633,64.0835918 62.7644082,64.138449 62.1087347,64.1933061 L62.1087347,64.4545306 L64.6347755,64.4545306 L64.6347755,64.1933061 C63.8772245,64.1332245 63.8119184,64.0862041 63.8119184,63.3338776 L63.8119184,61.941551 L64.7836735,61.941551 C65.3061224,61.941551 65.4001633,62.08 65.4994286,62.6573061 L65.792,62.6573061 L65.792,60.8470204 L65.5098776,60.8470204 C65.3818776,61.4321633 65.3270204,61.547102 64.7836735,61.547102 L63.8249796,61.547102 L63.8249796,59.6715102 C63.8249796,59.4102857 63.8537143,59.3841633 64.1201633,59.3841633 L64.8672653,59.3841633 C65.300898,59.3841633 65.4158367,59.4337959 65.5856327,59.6636735 C65.7318594,59.8814164 65.8396536,60.1226281 65.9043265,60.3768163 L66.2021224,60.3324082 C66.1603265,59.8804898 66.1237551,59.2169796 66.1133061,59.0053878 C65.9644082,59.0132245 65.6039184,59.0210612 64.8672653,59.0210612 Z" id="Path" fill="#3A3A34"></path>
            <path d="M71.3822041,63.3051429 C70.8466939,61.8840816 70.2693878,60.3428571 69.7469388,58.9035102 L69.4047347,58.9688163 L67.6571429,63.3312653 C67.3697959,64.0574694 67.2339592,64.1149388 66.7062857,64.1933061 L66.7062857,64.4545306 L68.7177143,64.4545306 L68.7177143,64.1933061 C68.0437551,64.1227755 67.8791837,64.0548571 68.0594286,63.5193469 C68.1586939,63.2241633 68.2788571,62.9002449 68.3911837,62.5893878 L70.1022041,62.5893878 C70.251102,63.0099592 70.4,63.4044082 70.4940408,63.6891429 C70.6115918,64.0313469 70.5828571,64.1201633 70.0473469,64.1933061 L70.0473469,64.4545306 L72.3173878,64.4545306 L72.3173878,64.1933061 C71.7505306,64.1253878 71.6747755,64.0626939 71.3822041,63.3051429 Z M68.5244082,62.197551 C68.7542857,61.5653878 69.0102857,60.9149388 69.2636735,60.2592653 L69.9611429,62.197551 L68.5244082,62.197551 Z" id="Shape" fill="#3A3A34"></path>
            <path d="M79.5924898,63.252898 L79.5402449,60.0764082 C79.5245714,59.4442449 79.6081633,59.3737143 80.3004082,59.2927347 L80.3004082,59.0158367 L78.6651429,59.0158367 L76.8809796,62.955102 L75.1595102,59.0132245 L73.5059592,59.0132245 L73.5059592,59.2979592 C74.2321633,59.3658776 74.3026939,59.5591837 74.2739592,59.9719184 C74.0702041,62.8662857 74.0466939,63.2659592 74.0127347,63.5689796 C73.9448163,64.0496327 73.7332245,64.1462857 73.2525714,64.1933061 L73.2525714,64.4545306 L75.2901224,64.4545306 L75.2901224,64.1933061 C74.6866939,64.1332245 74.506449,64.0391837 74.4933878,63.5794286 C74.4933878,63.339102 74.4933878,62.7565714 74.6213878,59.9928163 C75.2378776,61.4817959 75.9902041,63.370449 76.4186122,64.4675918 L76.6798367,64.4675918 C77.1474286,63.349551 78.0042449,61.4008163 78.6468571,59.9170612 L78.6468571,63.252898 C78.6468571,64.0705306 78.6155102,64.1253878 77.9572245,64.1933061 L77.9572245,64.4545306 L80.363102,64.4545306 L80.363102,64.1933061 C79.6421224,64.107102 79.6133878,64.0705306 79.5924898,63.252898 Z" id="Path" fill="#3A3A34"></path>
            <path d="M82.3745306,59.2979592 C83.0275918,59.3606531 83.1033469,59.412898 83.1033469,60.1234286 L83.1033469,63.3756735 C83.1033469,64.0835918 83.0328163,64.1253878 82.3745306,64.1933061 L82.3745306,64.4545306 L84.8091429,64.4545306 L84.8091429,64.1933061 C84.1482449,64.1201633 84.075102,64.0809796 84.075102,63.3756735 L84.075102,60.1234286 C84.075102,59.412898 84.1508571,59.3658776 84.8091429,59.2979592 L84.8091429,59.0210612 L82.3745306,59.0210612 L82.3745306,59.2979592 Z" id="Path" fill="#3A3A34"></path>
            <path d="M90.3418776,63.8119184 C90.1433469,64.0313469 90.0179592,64.1097143 89.5582041,64.1097143 C89.5164082,64.1097143 89.0357551,64.1097143 89.0200816,64.1097143 C88.5524898,64.1097143 88.5133061,63.9320816 88.5133061,63.4488163 L88.5133061,60.1208163 C88.5133061,59.4076735 88.6021224,59.3606531 89.2630204,59.2979592 L89.2630204,59.0210612 L86.8127347,59.0210612 L86.8127347,59.2979592 C87.4579592,59.3554286 87.541551,59.412898 87.541551,60.1208163 L87.541551,63.3730612 C87.541551,64.0783673 87.4762449,64.1306122 86.7265306,64.1933061 L86.7265306,64.4545306 L90.7676735,64.4545306 C90.8460408,64.2142041 91.0889796,63.3338776 91.1490612,63.0177959 L90.8564898,62.9315918 C90.7329067,63.2505565 90.559182,63.5477404 90.3418776,63.8119184 Z" id="Path" fill="#3A3A34"></path>
            <path d="M95.2006531,59.2979592 C95.8302041,59.371102 95.8798367,59.4677551 95.7048163,59.8413061 C95.4697143,60.3297959 95.0334694,61.1813878 94.7617959,61.6933878 C94.4274286,61.0716735 94.0512653,60.3663673 93.7430204,59.776 C93.5967347,59.4860408 93.5732245,59.3789388 94.1531429,59.2979592 L94.1531429,59.0210612 L91.8726531,59.0210612 L91.8726531,59.2979592 C92.395102,59.3528163 92.5022041,59.4573061 92.8182857,60.0137143 C93.2989388,60.8522449 93.6019592,61.3982041 93.8631837,61.9154286 C93.9481742,62.0428521 93.9919465,62.1933191 93.9885714,62.346449 L93.9885714,63.3626122 C93.9885714,64.0783673 93.931102,64.1018776 93.2231837,64.1933061 L93.2231837,64.4545306 L95.764898,64.4545306 L95.764898,64.1933061 C95.0360816,64.1123265 94.965551,64.0757551 94.965551,63.3626122 L94.965551,62.3177143 C94.9569323,62.1557435 94.9940464,61.9946143 95.0726531,61.8527347 C95.4827755,61.056 95.764898,60.5466122 96.1018776,59.9823673 C96.4388571,59.4181224 96.5694694,59.3528163 97.1284898,59.2901224 L97.1284898,59.0132245 L95.2006531,59.0132245 L95.2006531,59.2979592 Z" id="Path" fill="#3A3A34"></path>
            <path d="M107.846531,63.252898 L107.794286,60.0764082 C107.778612,59.4442449 107.859592,59.3737143 108.554449,59.2927347 L108.554449,59.0158367 L106.919184,59.0158367 L105.13502,62.955102 L103.410939,59.0132245 L101.757388,59.0132245 L101.757388,59.2979592 C102.486204,59.3658776 102.556735,59.5591837 102.528,59.9719184 C102.324245,62.8662857 102.300735,63.2659592 102.266776,63.5689796 C102.201469,64.0496327 101.989878,64.1462857 101.509224,64.1933061 L101.509224,64.4545306 L103.546776,64.4545306 L103.546776,64.1933061 C102.943347,64.1332245 102.763102,64.0391837 102.750041,63.5794286 C102.750041,63.339102 102.750041,62.7565714 102.878041,59.9928163 C103.494531,61.4817959 104.246857,63.370449 104.675265,64.4675918 L104.93649,64.4675918 C105.401469,63.349551 106.260898,61.4008163 106.900898,59.9170612 L106.900898,63.252898 C106.900898,64.0705306 106.869551,64.1253878 106.211265,64.1933061 L106.211265,64.4545306 L108.617143,64.4545306 L108.617143,64.1933061 C107.885714,64.107102 107.867429,64.0705306 107.846531,63.252898 Z" id="Path" fill="#3A3A34"></path>
            <path d="M110.534531,59.2979592 C111.190204,59.3606531 111.265959,59.412898 111.265959,60.1234286 L111.265959,63.3756735 C111.265959,64.0835918 111.192816,64.1253878 110.534531,64.1933061 L110.534531,64.4545306 L112.971755,64.4545306 L112.971755,64.1933061 C112.308245,64.1201633 112.237714,64.0809796 112.237714,63.3756735 L112.237714,60.1234286 C112.237714,59.412898 112.313469,59.3658776 112.971755,59.2979592 L112.971755,59.0210612 L110.534531,59.0210612 L110.534531,59.2979592 Z" id="Path" fill="#3A3A34"></path>
            <path d="M118.700408,59.2979592 C119.384816,59.3397551 119.546776,59.4912653 119.570286,59.8569796 C119.596408,60.1417143 119.606857,60.4551837 119.606857,61.2075102 L119.606857,62.955102 L116.244898,59.0210612 L114.779429,59.0210612 L114.779429,59.2979592 C115.155592,59.3345306 115.346286,59.371102 115.500408,59.5826939 C115.635938,59.7599262 115.697712,59.9826879 115.672816,60.2044082 L115.672816,62.2576327 C115.682233,62.7135519 115.666536,63.1696438 115.625796,63.6238367 C115.584,64.0235102 115.377633,64.1462857 114.881306,64.1933061 L114.881306,64.4545306 L116.942367,64.4545306 L116.942367,64.1933061 C116.32849,64.1515102 116.137796,63.9869388 116.111673,63.5924898 C116.090776,63.349551 116.069878,63.0021224 116.069878,62.2602449 L116.069878,60.277551 L119.604245,64.5537959 L120.006531,64.5537959 L120.006531,61.2075102 C120.006531,60.4551837 120.030041,60.1417143 120.045714,59.8413061 C120.071837,59.4599184 120.23902,59.3632653 120.761469,59.2979592 L120.761469,59.0210612 L118.700408,59.0210612 L118.700408,59.2979592 Z" id="Path" fill="#3A3A34"></path>
            <path d="M122.650122,59.2979592 C123.303184,59.3606531 123.378939,59.412898 123.378939,60.1234286 L123.378939,63.3756735 C123.378939,64.0835918 123.308408,64.1253878 122.650122,64.1933061 L122.650122,64.4545306 L125.084735,64.4545306 L125.084735,64.1933061 C124.423837,64.1201633 124.350694,64.0809796 124.350694,63.3756735 L124.350694,60.1234286 C124.350694,59.412898 124.429061,59.3658776 125.084735,59.2979592 L125.084735,59.0210612 L122.650122,59.0210612 L122.650122,59.2979592 Z" id="Path" fill="#3A3A34"></path>
            <path d="M129.172898,61.2493061 C128.454531,60.8835918 128.128,60.6014694 128.128,60.0868571 C128.112133,59.8587968 128.194352,59.6348052 128.353997,59.4711691 C128.513642,59.307533 128.735536,59.2198089 128.963918,59.2300408 C129.747592,59.2300408 129.977469,59.8125714 130.134204,60.3559184 L130.426776,60.2906122 C130.358857,59.7681633 130.311837,59.3658776 130.277878,59.0602449 C129.898459,58.9688421 129.510716,58.9163262 129.120653,58.9035102 C127.932082,58.9035102 127.273796,59.6035918 127.273796,60.4238367 C127.273796,61.2440816 127.809306,61.6672653 128.684408,62.1400816 C129.405388,62.5266939 129.729306,62.8009796 129.729306,63.3573878 C129.748716,63.5997588 129.661966,63.8386212 129.491545,64.0120492 C129.321125,64.1854773 129.083816,64.2763924 128.841143,64.2612245 C127.997388,64.2612245 127.574204,63.4305306 127.404408,62.8871837 L127.109224,62.9577143 C127.166694,63.3782857 127.292082,64.1149388 127.349551,64.3265306 C127.782211,64.487596 128.238567,64.575866 128.700082,64.5877551 C129.846857,64.5877551 130.64098,63.8876735 130.64098,62.9472653 C130.627918,62.1400816 130.118531,61.7273469 129.172898,61.2493061 Z" id="Path" fill="#3A3A34"></path>
            <path d="M136.756245,58.8199184 C136.651403,58.966115 136.475015,59.0432848 136.29649,59.0210612 L132.963265,59.0210612 C132.720327,59.0210612 132.623673,59.0210612 132.498286,58.8199184 L132.27102,58.8199184 C132.250122,59.2509388 132.195265,59.8491429 132.140408,60.416 L132.430367,60.416 C132.504871,60.157082 132.61011,59.9080166 132.743837,59.6741224 C132.895347,59.4494694 133.028571,59.3841633 133.496163,59.3841633 L134.117878,59.3841633 L134.117878,63.3861224 C134.117878,64.0731429 134.047347,64.138449 133.305469,64.1933061 L133.305469,64.4545306 L135.933388,64.4545306 L135.933388,64.1933061 C135.165388,64.138449 135.089633,64.0679184 135.089633,63.3861224 L135.089633,59.3841633 L135.758367,59.3841633 C136.23902,59.3841633 136.314776,59.4494694 136.455837,59.6453878 C136.600896,59.8828681 136.709222,60.1409127 136.777143,60.4107755 L137.06449,60.3846531 C137.022694,59.8622041 136.988735,59.1882449 136.986122,58.8173061 L136.756245,58.8199184 Z" id="Path" fill="#3A3A34"></path>
            <path d="M143.232,63.8876735 C142.994409,63.6154033 142.777841,63.3254811 142.584163,63.0204082 C142.322939,62.6390204 141.991184,62.0852245 141.852735,61.8318367 C142.435265,61.5915102 142.915918,61.1709388 142.915918,60.436898 C142.935251,59.9935505 142.72121,59.5724041 142.351673,59.3266939 C142.017306,59.1020408 141.599347,59.0210612 140.912327,59.0210612 L138.610939,59.0210612 L138.610939,59.2979592 C139.256163,59.3606531 139.342367,59.4233469 139.342367,60.1077551 L139.342367,63.3756735 C139.342367,64.0679184 139.274449,64.1201633 138.610939,64.1933061 L138.610939,64.4545306 L141.029878,64.4545306 L141.029878,64.1933061 C140.384653,64.1201633 140.295837,64.0679184 140.295837,63.3756735 L140.295837,62.1113469 L140.52049,62.1113469 C140.857469,62.1113469 140.972408,62.1609796 141.116082,62.4065306 C141.395592,62.8741224 141.662041,63.3939592 141.988571,63.8406531 C142.315102,64.2873469 142.607673,64.4623673 143.472327,64.5093878 C143.576816,64.5093878 143.673469,64.522449 143.749224,64.522449 L143.796245,64.2612245 C143.573502,64.1992687 143.376025,64.0685312 143.232,63.8876735 Z M140.601469,61.7978776 L140.295837,61.7978776 L140.295837,59.7681633 C140.295837,59.5800816 140.316735,59.4860408 140.382041,59.4311837 C140.506755,59.3588789 140.651756,59.3295117 140.794776,59.3475918 C141.340735,59.3475918 141.889306,59.668898 141.889306,60.5622857 C141.920465,60.9456886 141.762485,61.3201579 141.466122,61.5653878 C141.214689,61.7428217 140.907653,61.823523 140.601469,61.7926531 L140.601469,61.7978776 Z" id="Shape" fill="#3A3A34"></path>
            <path d="M145.394939,59.2979592 C146.048,59.3606531 146.126367,59.412898 146.126367,60.1234286 L146.126367,63.3756735 C146.126367,64.0835918 146.053224,64.1253878 145.394939,64.1933061 L145.394939,64.4545306 L147.832163,64.4545306 L147.832163,64.1933061 C147.168653,64.1201633 147.09551,64.0809796 147.09551,63.3756735 L147.09551,60.1234286 C147.09551,59.412898 147.173878,59.3658776 147.832163,59.2979592 L147.832163,59.0210612 L145.394939,59.0210612 L145.394939,59.2979592 Z" id="Path" fill="#3A3A34"></path>
            <path d="M153.644408,63.8223673 C153.458939,64.0444082 153.351837,64.1097143 152.860735,64.1097143 L152.181551,64.1097143 C151.708735,64.1097143 151.617306,63.9817143 151.617306,63.3991837 L151.617306,61.8579592 L152.476735,61.8579592 C153.014857,61.8579592 153.082776,61.952 153.205551,62.5632653 L153.503347,62.5632653 L153.503347,60.7582041 L153.205551,60.7582041 C153.090612,61.3433469 153.025306,61.4687347 152.487184,61.4687347 L151.617306,61.4687347 L151.617306,59.6715102 C151.617306,59.4102857 151.643429,59.3841633 151.936,59.3841633 L152.591673,59.3841633 C153.051429,59.3841633 153.197714,59.4390204 153.341388,59.6453878 C153.486603,59.8639841 153.592675,60.1061814 153.654857,60.3611429 L153.947429,60.3193469 C153.913469,59.8334694 153.874286,59.1725714 153.866449,58.9949388 C153.756735,58.9949388 153.44849,59.0106122 152.609959,59.0106122 L149.963755,59.0106122 L149.963755,59.2979592 C150.559347,59.3528163 150.656,59.3998367 150.656,60.1260408 L150.656,63.3756735 C150.656,64.0731429 150.601143,64.128 149.830531,64.1959184 L149.830531,64.4571429 L154.057143,64.4571429 C154.13551,64.2168163 154.368,63.2973061 154.412408,63.0752653 L154.130286,63.0021224 C154.004571,63.295445 153.841242,63.5711723 153.644408,63.8223673 L153.644408,63.8223673 Z" id="Path" fill="#3A3A34"></path>
            <path d="M158.18449,61.2493061 C157.466122,60.8835918 157.139592,60.6014694 157.139592,60.0868571 C157.123657,59.8583218 157.20622,59.6338818 157.366455,59.4701528 C157.52669,59.3064239 157.749297,59.2190388 157.978122,59.2300408 C158.761796,59.2300408 158.991673,59.8125714 159.148408,60.3559184 L159.438367,60.2906122 C159.373061,59.7681633 159.326041,59.3658776 159.292082,59.0602449 C158.912663,58.9688421 158.52492,58.9163262 158.134857,58.9035102 C156.943673,58.9035102 156.285388,59.6035918 156.285388,60.4238367 C156.285388,61.2440816 156.82351,61.6672653 157.698612,62.1400816 C158.41698,62.5266939 158.74351,62.8009796 158.74351,63.3573878 C158.76292,63.5997588 158.67617,63.8386212 158.50575,64.0120492 C158.335329,64.1854773 158.09802,64.2763924 157.855347,64.2612245 C157.011592,64.2612245 156.585796,63.4305306 156.418612,62.8871837 L156.120816,62.9577143 C156.180898,63.3782857 156.303673,64.1149388 156.361143,64.3265306 C156.794629,64.4878793 157.251891,64.5761538 157.714286,64.5877551 C158.861061,64.5877551 159.655184,63.8876735 159.655184,62.9472653 C159.63951,62.1400816 159.130122,61.7273469 158.18449,61.2493061 Z" id="Path" fill="#3A3A34"></path>
            <polygon id="Path" fill="#3A3A34" points="65.0292245 34.5469388 68.4303673 34.5469388 68.1273469 32.7262041 65.0292245 32.7262041 65.0292245 29.9154286 69.0834286 29.9154286 69.0834286 28.0790204 62.9211429 28.0790204 62.9211429 39.0974694 65.0292245 39.0974694"></polygon>
            <path d="M69.4857143,37.1173878 C69.4857143,38.4574694 70.3634286,39.2568188 71.6721633,39.2568188 C72.6570498,39.2580101 73.5943232,38.833189 74.2426122,38.0917551 L74.4019592,39.0974694 L76.0476735,39.0974694 L76.0476735,33.812898 C76.0476735,31.9582041 75.0576327,31.2241633 73.0618776,31.2241633 C72.0127963,31.2291949 70.9750369,31.441363 70.0081633,31.8484898 L70.2484898,33.3792653 C71.05234,32.9943815 71.928049,32.7825738 72.8189388,32.757551 C73.6653061,32.757551 74.1433469,33.0762449 74.1433469,33.9069388 L74.1433469,34.1315918 C71.0164898,34.4346122 69.4857143,35.2496327 69.4857143,37.1173878 Z M74.1302857,36.9737143 C73.6649051,37.4807466 73.0156332,37.7799763 72.3278367,37.8044082 C71.7348571,37.8044082 71.3848163,37.4674286 71.3848163,36.9084082 C71.3848163,36.1743673 71.9072653,35.5213061 74.1302857,35.2496327 L74.1302857,36.9737143 Z" id="Shape" fill="#3A3A34"></path>
            <path d="M82.6096327,34.0506122 L82.6096327,39.0974694 L84.5270204,39.0974694 L84.5270204,33.8729796 C85.0860408,33.2982857 85.6450612,32.9142857 86.2354286,32.9142857 C86.9381224,32.9142857 87.178449,33.3766531 87.178449,34.048 L87.178449,39.0948571 L89.0932245,39.0948571 L89.0932245,33.5412245 C89.0932245,32.1044898 88.3748571,31.2241633 86.922449,31.2241633 C85.877551,31.2241633 85.0390204,31.7831837 84.352,32.4702041 C84.0646531,31.7204898 83.4716735,31.2241633 82.3719184,31.2241633 C81.3270204,31.2241633 80.5433469,31.7831837 79.8328163,32.4702041 L79.6577959,31.3835102 L78.0277551,31.3835102 L78.0277551,39.0974694 L79.9346939,39.0974694 L79.9346939,33.8729796 C80.4937143,33.2982857 81.0527347,32.9142857 81.643102,32.9142857 C82.3562449,32.9142857 82.6096327,33.3792653 82.6096327,34.0506122 Z" id="Path" fill="#3A3A34"></path>
            <path d="M92.1443265,30.090449 C92.4399384,30.1025127 92.7277413,29.9938153 92.9415727,29.7893452 C93.1554042,29.584875 93.2768679,29.302223 93.2780408,29.0063673 C93.2780408,28.3759061 92.766951,27.8648163 92.1364898,27.8648163 C91.5060286,27.8648163 90.9949388,28.3759061 90.9949388,29.0063673 C90.996667,29.3048371 91.1205004,29.5895896 91.3376323,29.7943845 C91.5547642,29.9991793 91.8462657,30.1061632 92.1443265,30.090449 L92.1443265,30.090449 Z" id="Path" fill="#3A3A34"></path>
            <rect id="Rectangle" fill="#3A3A34" x="91.1699592" y="31.3835102" width="1.91477551" height="7.71134694"></rect>
            <polygon id="Path" fill="#3A3A34" points="95.2737959 39.0974694 97.1911837 39.0974694 97.1911837 27.5696327 95.2737959 27.8726531"></polygon>
            <path d="M101.279347,39.444898 C100.973714,40.1632653 100.52702,40.4192653 99.9209796,40.4192653 C99.635065,40.4204355 99.350324,40.3826458 99.0746122,40.3069388 L99.3358367,41.9213061 C99.591999,41.9845997 99.8558871,42.0109885 100.11951,41.9996735 C101.509224,41.9996735 102.402612,41.4406531 103.058286,39.5885714 L106.012735,31.380898 L104.079673,31.380898 L102.386939,36.746449 L100.600163,31.2607347 L98.6044082,31.5219592 L101.396898,39.1235918 L101.279347,39.444898 Z" id="Path" fill="#3A3A34"></path>
            <path d="M113.094531,34.8813061 L113.987918,34.8813061 L116.861388,39.2071837 L119.094857,38.8101224 L116.111673,34.4816327 C117.485714,34.0035918 118.347755,32.9978776 118.347755,31.3835102 C118.347755,29.2440816 116.864,28.0790204 114.403265,28.0790204 L110.986449,28.0790204 L110.986449,39.0974694 L113.094531,39.0974694 L113.094531,34.8813061 Z M113.078857,29.7795918 L114.243918,29.7795918 C115.570939,29.7795918 116.273633,30.4013061 116.273633,31.5036735 C116.273633,32.6530612 115.458612,33.2773878 114.149878,33.2773878 L113.078857,33.2773878 L113.078857,29.7795918 Z" id="Shape" fill="#3A3A34"></path>
            <path d="M123.282286,31.2241633 C121.19249,31.2241633 119.659102,32.7418776 119.659102,35.2496327 C119.659102,37.7573878 121.176816,39.2568163 123.266612,39.2568163 C125.356408,39.2568163 126.923755,37.7547755 126.923755,35.2496327 C126.923755,32.7444898 125.387755,31.2241633 123.282286,31.2241633 Z M123.266612,37.6920816 C122.148571,37.6920816 121.526857,36.6471837 121.526857,35.2496327 C121.526857,33.8520816 122.132898,32.788898 123.266612,32.788898 C124.400327,32.788898 125.056,33.8337959 125.056,35.2496327 C125.056,36.6654694 124.449959,37.6920816 123.266612,37.6920816 Z" id="Shape" fill="#3A3A34"></path>
            <path d="M134.269388,36.8326531 C134.269388,35.3776327 133.485714,34.836898 131.489959,34.324898 C130.340571,34.0218776 130.053224,33.781551 130.053224,33.3662041 C130.053224,32.9508571 130.405878,32.6530612 131.134694,32.6530612 C131.993985,32.6844839 132.832529,32.9257333 133.577143,33.3557551 L133.838367,31.7596735 C132.983215,31.3982612 132.063046,31.2160056 131.134694,31.2241633 C129.345306,31.2241633 128.292571,32.1671837 128.292571,33.5072653 C128.292571,34.9126531 129.076245,35.456 130.944,35.9340408 C132.171755,36.2396735 132.511347,36.4564898 132.511347,37.0050612 C132.511347,37.5536327 132.064653,37.8200816 131.236571,37.8200816 C130.232489,37.7869406 129.258176,37.4709228 128.425796,36.9084082 L128.164571,38.5044898 C129.09259,38.9861954 130.120531,39.2438517 131.166041,39.2568163 C133.182694,39.2568163 134.269388,38.3451429 134.269388,36.8326531 Z" id="Path" fill="#3A3A34"></path>
            <path d="M140.353306,39.0974694 L141.99902,39.0974694 L141.99902,33.812898 C141.99902,31.9582041 141.00898,31.2241633 139.013224,31.2241633 C137.959715,31.2271955 136.917296,31.4394086 135.946449,31.8484898 L136.186776,33.3792653 C136.990626,32.9943815 137.866335,32.7825738 138.757224,32.757551 C139.603592,32.757551 140.081633,33.0762449 140.081633,33.9069388 L140.081633,34.1315918 C136.967837,34.4346122 135.437061,35.2496327 135.437061,37.1173878 C135.437061,38.4574694 136.314776,39.2568188 137.62351,39.2568188 C138.608397,39.2580101 139.54567,38.833189 140.193959,38.0917551 L140.353306,39.0974694 Z M140.092082,36.9737143 C139.626701,37.4807466 138.977429,37.7799763 138.289633,37.8044082 C137.696653,37.8044082 137.346612,37.4674286 137.346612,36.9084082 C137.346612,36.1743673 137.869061,35.5213061 140.092082,35.2496327 L140.092082,36.9737143 Z" id="Shape" fill="#3A3A34"></path>
            <path d="M145.846857,32.9325714 L145.609143,31.3835102 L143.979102,31.3835102 L143.979102,39.0974694 L145.893878,39.0974694 L145.893878,34.6723265 C146.516483,33.756779 147.531112,33.1847213 148.636735,33.1258776 L148.333714,31.2241633 C147.124245,31.2894694 146.358857,32.0391837 145.846857,32.9325714 Z" id="Path" fill="#3A3A34"></path>
            <path d="M150.541061,40.4218776 C150.255147,40.4230478 149.970406,40.3852581 149.694694,40.309551 L149.955918,41.9239184 C150.212129,41.986932 150.475977,42.0133168 150.739592,42.0022857 C152.126694,42.0022857 153.022694,41.4432653 153.675755,39.5911837 L156.630204,31.3835102 L154.699755,31.3835102 L153.00702,36.7490612 L151.217633,31.2633469 L149.221878,31.5245714 L152.01698,39.1262041 L151.904653,39.444898 C151.596408,40.1658776 151.149714,40.4218776 150.541061,40.4218776 Z" id="Path" fill="#3A3A34"></path>
        </g>
    </g>
</svg>