<?xml version="1.0" encoding="utf-8"?>
<!-- Generator: Adobe Illustrator 22.1.0, SVG Export Plug-In . SVG Version: 6.00 Build 0)  -->
<svg version="1.1" id="Layer_1" xmlns="http://www.w3.org/2000/svg" xmlns:xlink="http://www.w3.org/1999/xlink" x="0px" y="0px"
	 viewBox="0 0 297.8 91.3" style="enable-background:new 0 0 297.8 91.3;" xml:space="preserve">
<style type="text/css">
	.st0{fill:#231F20;}
	.st1{fill:#A71E23;}
</style>
<path class="st0" d="M136.3,86.8c-0.9-0.9-1.2-1.9-1.2-3.8c-0.1-3.8-0.2-10.7-0.2-16.6c0-5.9,0-12.8,0.2-16.6
	c0.1-1.9,0.3-2.8,1.2-3.8c1.2-1.2,3.9-1.1,3.9-1.1l0.1-0.5l-0.1-0.5c0,0-4.9,0.1-8.3,0.1c-3.4,0-8.3-0.1-8.3-0.1l-0.2,0.5l0.2,0.5
	c0,0,2.8-0.1,3.9,1.1c0.9,0.9,1.2,1.9,1.3,3.8c0.1,3.8,0.1,10.7,0.1,16.6c0,5.9,0,12.8-0.1,16.6c-0.1,1.9-0.3,2.8-1.3,3.8
	c-1.2,1.2-3.9,1.1-3.9,1.1l-0.2,0.5l0.2,0.5c0,0,4.9-0.1,8.3-0.1c3.4,0,8.3,0.1,8.3,0.1l0.1-0.5l-0.1-0.5
	C140.3,87.9,137.5,88,136.3,86.8"/>
<path class="st0" d="M216.5,45l-0.7-0.9c-2,0-17.1,0.1-18.6,0.1c-1.5,0-16.6-0.1-18.6-0.1l-0.7,0.9c1,2.2,0.9,10.8,0.9,10.8l0.7,0.2
	l0.7-0.2c0,0,0.5-5.9,1.5-7.3c1.2-1.7,3.4-2.6,6.6-2.6h2.6c2,0,3.1,1.6,3.2,4.2c0.1,3.8,0.1,10.6,0.1,16.3c0,5.9,0,12.8-0.2,16.6
	c-0.1,1.9-0.3,2.8-1.3,3.8c-1.2,1.2-3.9,1.1-3.9,1.1l-0.1,0.5l0.1,0.5c0,0,4.9-0.1,8.3-0.1s8.3,0.1,8.3,0.1l0.2-0.5l-0.2-0.5
	c0,0-2.8,0.1-3.9-1.1c-0.9-0.9-1.2-1.9-1.2-3.8c-0.1-3.8-0.1-10.7-0.1-16.6c0-5.6,0-12.2,0.1-16.1c0,0,0,0,0-0.1
	c0-2.7,1.2-4.4,3.2-4.4h2.6c3.2,0,5.4,0.9,6.6,2.6c1,1.4,1.5,7.3,1.5,7.3l0.7,0.2l0.7-0.2C215.6,55.8,215.5,47.2,216.5,45"/>
<path class="st0" d="M121.5,67.8c0,0-3.9,0.1-7.3,0.1c-3.4,0-7.2-0.1-7.2-0.1l-0.2,0.5l0.2,0.5c0,0,2-0.1,3.2,1.1
	c0.9,0.9,1.2,1.8,1.2,3.7c0.1,3.6-0.1,6.6-0.1,11.9c-1.2,0.6-4.1,1.4-7.4,1.4c-4.3-0.1-18.3-1.8-19.5-19.5
	C83.6,53,92.1,45.7,103,45.7c8.3,0,12,3.3,12.9,10l0.8,0.3l0.7-0.3c0,0-0.2-9,1.3-9.7c-1.3-1-8.4-2.4-15.9-2.4
	c-14.7,0-24.9,8.7-24.9,23.9c0,12.6,8.2,22.1,23.3,22.1c12.3,0,15.8-2.9,18.1-4.7c0,0-1.9-0.8-2.1-3.7c-0.1-2.1-0.3-5-0.2-7.7
	c0.1-1.9,0.3-2.8,1.2-3.7c1.2-1.2,3.2-1.1,3.2-1.1l0.2-0.5L121.5,67.8z"/>
<path class="st0" d="M174,55.9l0.7,0.2l0.7-0.2c0,0-0.4-10.2,0.9-10.9c-3.1-0.8-8.6-1.6-14.4-1.6c-10.2,0-16,5.1-16,11.6
	c0,6.3,1.7,9.1,14.3,12.7c9.4,2.7,11.9,5.7,11.9,10.1c0,4.5-2.4,9-12.1,9c-8.7,0-12.9-5.1-13.4-10.9l-0.8-0.2l-0.7,0.2
	c0,0,0.8,9.3,0.1,11.2c3.8,0.8,7.2,1.9,15.7,1.9c10.3,0,16.8-4.6,16.8-13.2c0-7.6-3.3-10.6-13.7-14.1c-10.4-3.5-12.7-4.5-12.7-8.9
	c0-3.5,3.2-7.1,10.8-7.1C170.5,45.7,173,48.8,174,55.9"/>
<path class="st0" d="M296.2,87.9c0,0-1.2-0.1-2.5-0.8c-0.9-0.5-2.9-1.9-5.4-5.9c-3-4.6-4.5-8.2-7-11.9c-1.4-2.1-2.6-3.5-5.2-4.3
	c10.5-1.7,13.3-7.5,12.9-12c-0.5-6.3-4.4-9.1-17.8-8.9c-3.3,0.1-5.6,0.1-9,0.1c-3.4,0-8.3-0.1-8.3-0.1l-0.2,0.5l0.2,0.5
	c0,0,2.8-0.1,3.9,1.1c0.9,0.9,1.2,1.9,1.2,3.8c0.1,3.8,0.2,10,0.2,15.9s0,13.5-0.2,17.3c-0.1,1.9-0.3,2.8-1.2,3.8
	c-1.2,1.2-3.9,1.1-3.9,1.1l-0.2,0.5l0.2,0.5c0,0,4.9-0.1,8.3-0.1c3.4,0,8.3,0.1,8.3,0.1l0.1-0.5l-0.1-0.5c0,0-2.8,0.1-3.9-1.1
	c-0.9-0.9-1.2-1.9-1.3-3.8c-0.1-3.5-0.1-9.7-0.1-15.2c0-1,0.7-1.7,1.7-1.7c0.8,0,1.5,0,2,0c1.6,0,3.5,0.5,4.8,2.4
	c3,4.1,5,9.1,9.3,15.8c2.6,4.1,4.2,4.5,4.2,4.5c2.3,0,9.1,0,9.1,0l0.2-0.5L296.2,87.9z M271.8,45.6c8.1,0,10.6,3.3,10.5,9.3
	c-0.1,6-2.2,8.8-10.7,9c-1.9,0.1-3,0-5.2,0c-0.9,0-1.4-0.8-1.4-2.4c0-4.7,0.1-8.8,0.1-11.7c0-1.6,0.2-2.6,0.9-3.3
	C266.9,45.8,268.6,45.6,271.8,45.6"/>
<path class="st0" d="M75.7,79.7L75,79.9c0,0-1.1,2.5-2.6,4.1c-1.2,1.3-3.9,2.9-6.5,2.9H57c-2,0-3.1-1.4-3.1-3.5
	c-0.2-3.8-0.2-10.3-0.2-15.8c0-1,0.6-1.8,1.6-1.8h5.5c2.6,0,4.6,1.2,5.5,2.7c0.9,1.5,1.3,4.3,1.3,4.3l0.7,0.1l0.7-0.2
	c0,0-0.3-8.5,0.6-10.8l-0.4-0.4l-0.7-0.1c0,0-0.3,1.2-2.2,1.9c-1,0.4-2.7,0.6-5.9,0.6H55c-0.8,0-1.3-0.4-1.3-1.5
	c0-5.1,0-10.1,0.2-12.6c0.1-2.5,2.1-3.9,4-3.9h6.2c3.2,0,5.4,0.9,6.6,2.6c1,1.4,1.5,4.5,1.5,4.5l0.7,0.2l0.7-0.2c0,0-0.1-5.7,0.9-8
	l-0.7-0.9H60.4c-3.1,0-6.3,0.1-9.7,0.1c-3.4,0-8.3-0.1-8.3-0.1l-0.2,0.5l0.2,0.5c0,0,2.8-0.1,3.9,1.1c0.9,0.9,1.2,1.9,1.2,3.8
	c0.1,3.8,0.2,10,0.2,15.9c0,5.9,0,13.5-0.2,17.3c-0.1,1.9-0.3,2.8-1.2,3.8c-0.7,0.7-1.9,1.1-2.9,1.1c-0.7,0-1.7-0.2-2.5-0.6
	c-0.9-0.5-2.9-2.1-5.4-6.1c-3-4.6-4.5-8.2-7-11.9c-1.4-2.1-2.6-3.5-5.2-4.3c10.5-1.7,13.3-7.5,12.9-12c-0.5-6.3-4.4-9.1-17.8-8.9
	c-3.3,0.1-5.6,0.1-9,0.1c-3.4,0-8.3-0.1-8.3-0.1l-0.1,0.5L1.1,45c0,0,2.8-0.1,3.9,1.1c0.9,0.9,1.2,1.9,1.2,3.8
	c0.1,3.8,0.2,10,0.2,15.9c0,5.9,0,13.5-0.2,17.3c-0.1,1.9-0.3,2.8-1.2,3.8c-1.2,1.2-3.9,1.1-3.9,1.1l-0.1,0.5l0.1,0.5
	c0,0,4.9-0.1,8.3-0.1c3.4,0,8.3,0.1,8.3,0.1l0.1-0.5l-0.1-0.5c0,0-2.8,0.1-3.9-1.1c-0.9-0.9-1.2-1.9-1.2-3.8
	c-0.1-3.5-0.1-9.7-0.1-15.2c0-1,0.7-1.7,1.7-1.7c0.8,0,1.5,0,2,0c1.6,0,3.5,0.5,4.8,2.4c3,4.1,5,9.1,9.3,15.8
	c2.6,4.1,4.2,4.5,4.2,4.5c1.7,0,6.3,0,8.1,0c1.9,0,5.8-0.1,8.3-0.1c1.2,0,12,0.1,12,0.1h12.6l0.7-0.9c0-2.7,0.4-8,0.4-8L75.7,79.7z
	 M18.9,64c-1.9,0.1-3,0-5.2,0c-0.9,0-1.4-0.8-1.4-2.4c0-4.7,0.1-8.8,0.1-11.7c0-1.6,0.2-2.6,0.9-3.3c0.8-0.7,2.4-0.9,5.7-0.9
	c8.1,0,10.6,3.3,10.5,9.3C29.5,61,27.4,63.8,18.9,64"/>
<path class="st0" d="M250.8,79.7l-0.7,0.2c0,0-1.1,2.5-2.6,4.1c-1.2,1.3-3.9,2.9-6.5,2.9h-8.9c-2,0-3.1-1.4-3.1-3.5
	c-0.2-3.8-0.2-10.3-0.2-15.8c0-1,0.6-1.8,1.6-1.8h5.5c2.6,0,4.6,1.2,5.5,2.7c0.9,1.5,1.3,4.3,1.3,4.3l0.7,0.1l0.7-0.2
	c0,0-0.3-8.5,0.6-10.8l-0.4-0.4l-0.7-0.1c0,0-0.3,1.2-2.2,1.9c-1,0.4-2.7,0.6-5.9,0.6h-5.4c-0.8,0-1.3-0.4-1.3-1.5
	c0-5.1,0-10.1,0.1-12.6c0.1-2.5,2.1-3.9,4-3.9h6.2c3.2,0,5.4,0.9,6.6,2.6c1,1.4,1.5,4.5,1.5,4.5l0.7,0.2l0.7-0.2c0,0-0.1-5.7,0.9-8
	l-0.7-0.9h-13.4c-3.1,0-6.3,0.1-9.7,0.1c-3.4,0-8.3-0.1-8.3-0.1l-0.1,0.5l0.1,0.5c0,0,2.8-0.1,3.9,1.1c0.9,0.9,1.2,1.9,1.3,3.8
	c0.1,3.8,0.2,10,0.2,15.9c0,5.9,0,13.5-0.2,17.3c-0.1,1.9-0.3,2.8-1.3,3.8c-0.7,0.7-2.3,1.1-3.9,1.1l-0.1,0.5l0.1,0.5
	c1.4-0.1,5.8-0.1,8.3-0.1c1.2,0,12,0.1,12,0.1h12.6l0.7-0.9c0-2.7,0.4-8,0.4-8L250.8,79.7z"/>
<path class="st0" d="M177,25.8h0.3v-2.4h-0.1c-0.1,0.1-0.4,0.1-0.6,0.1c-0.3,0-0.8-0.2-1.2-0.3c-0.3-0.1-1.5-0.3-2.5-0.3
	c-3.8,0-7.1,2.5-7.1,7c0,4.2,2.7,6.7,6.8,6.7c2.1,0,3.1-0.5,3.5-0.6c0.4-0.2,0.6-0.3,1-0.3c0,0,0.3-1.9,0.3-1.9l-0.4-0.1
	c-0.4,1.7-2.1,2.3-4.1,2.3c-2.6,0-5.1-1.7-5.5-5.7c-0.5-4.4,2.1-6.9,5.4-6.9C175.1,23.5,176.6,24.2,177,25.8"/>
<path class="st0" d="M287.1,25.8h0.3v-2.4h-0.1c-0.1,0.1-0.4,0.1-0.6,0.1c-0.3,0-0.8-0.2-1.2-0.3c-0.3-0.1-1.5-0.3-2.5-0.3
	c-3.8,0-7.1,2.5-7.1,7c0,4.2,2.7,6.7,6.8,6.7c2.1,0,3.1-0.5,3.5-0.6c0.4-0.2,0.6-0.3,1-0.3c0,0,0.3-1.9,0.3-1.9l-0.4-0.1
	c-0.4,1.7-2.1,2.3-4.1,2.3c-2.6,0-5-1.7-5.5-5.7c-0.5-4.4,2.1-6.9,5.4-6.9C285.2,23.5,286.7,24.2,287.1,25.8"/>
<path class="st0" d="M47.7,23.2h-7.2c-0.8,0-1.5-0.1-1.9-0.2c0,0.7,0,2.5,0,2.5h0.3c0,0,0.1-0.8,0.4-1.1c0.3-0.3,0.6-0.5,1.3-0.5
	h2.4v11c0,0.6-0.1,0.8-0.3,1C42.5,36,41.8,36,41.8,36v0.3c0,0,1.2,0,1.9,0c0.8,0,1.9,0,1.9,0V36c0,0-0.7,0-0.9-0.2
	c-0.2-0.2-0.3-0.4-0.3-1v-11h2.6c0.4,0,0.8,0.2,0.9,0.3c0.3,0.3,0.3,0.7,0.5,1.3h0.3c0,0,0-1,0-1.4c0-0.4,0.1-1,0.1-1
	C48.5,23.2,48,23.2,47.7,23.2"/>
<path class="st0" d="M206.4,23.2h-7.2c-0.8,0-1.5-0.1-1.9-0.2c0,0.7,0,2.5,0,2.5h0.3c0,0,0.1-0.8,0.4-1.1c0.3-0.3,0.6-0.5,1.3-0.5
	h2.4v11c0,0.6-0.1,0.8-0.3,1c-0.2,0.2-0.9,0.2-0.9,0.2v0.3c0,0,1.2,0,1.9,0c0.8,0,1.9,0,1.9,0V36c0,0-0.7,0-0.9-0.2
	c-0.2-0.2-0.3-0.4-0.3-1v-11h2.6c0.5,0,0.8,0.2,0.9,0.3c0.3,0.3,0.3,0.7,0.5,1.3h0.4c0,0,0-1,0-1.4c0-0.4,0.1-1,0.1-1
	C207.2,23.2,206.7,23.2,206.4,23.2"/>
<path class="st0" d="M65.2,29.8c-0.3-3.8,1.6-6,4.5-6.2c2.7-0.2,5.4,1.8,5.7,5.9c0.4,5-2.6,6.2-4.2,6.4
	C68.1,36.2,65.5,33.8,65.2,29.8 M63.5,30.7c0.2,3.1,2.8,6.3,7.3,5.9c4.3-0.4,6.6-3.5,6.3-7.7c-0.3-4-3.5-6.3-7.4-5.9
	C65.3,23.4,63.2,26.9,63.5,30.7"/>
<path class="st0" d="M234.5,29.8c-0.3-3.8,1.6-6,4.5-6.2c2.7-0.2,5.4,1.8,5.7,5.9c0.4,5-2.6,6.2-4.2,6.4
	C237.5,36.2,234.9,33.8,234.5,29.8 M232.9,30.7c0.2,3.1,2.8,6.3,7.3,5.9c4.3-0.4,6.6-3.5,6.3-7.7c-0.3-4-3.5-6.3-7.4-5.9
	C234.6,23.4,232.6,26.9,232.9,30.7"/>
<path class="st0" d="M17.1,23.2c-0.9,0-1.6,0-1.6,0v0.3c0.4,0,0.6,0.1,0.8,0.2c0.1,0.1,0.3,0.4,0.3,1.1v8.8c0,0.1-0.1,0.1-0.1,0
	c-0.7-0.8-9.3-10.1-9.6-10.5c-0.3-0.3-0.5-0.2-0.5,0.2v11.5c0,0.6-0.1,0.8-0.3,1C5.8,36,5.4,36,5.2,36v0.3c0.5,0,1.2,0,1.6,0
	c0.8,0,1.7,0,1.7,0V36c0,0-0.7,0-0.9-0.2c-0.2-0.2-0.3-0.4-0.3-1v-8.6c0-0.1,0-0.1,0.1-0.1c0.4,0.4,9.3,9.8,9.7,10.2
	c0.3,0.3,0.5,0.2,0.5-0.3V24.8c0-0.6,0.1-0.9,0.3-1.1c0.1-0.1,0.3-0.2,0.8-0.2v-0.3C18.7,23.2,18,23.2,17.1,23.2"/>
<path class="st0" d="M94.6,23.2c-0.9,0-1.6,0-1.6,0v0.3c0.4,0,0.6,0.1,0.8,0.2c0.1,0.1,0.3,0.4,0.3,1.1v8.8c0,0.1-0.1,0.1-0.1,0
	c-0.7-0.8-9.3-10.1-9.6-10.5c-0.3-0.3-0.5-0.2-0.5,0.2v11.5c0,0.6-0.1,0.8-0.3,1C83.4,36,83,36,82.7,36v0.3c0.5,0,1.2,0,1.6,0
	c0.8,0,1.7,0,1.7,0V36c0,0-0.7,0-0.9-0.2c-0.2-0.2-0.3-0.4-0.3-1v-8.6c0-0.1,0-0.1,0.1-0.1c0.4,0.4,9.3,9.8,9.7,10.2
	c0.3,0.3,0.5,0.2,0.5-0.3V24.8c0-0.6,0.2-0.9,0.3-1.1c0.1-0.1,0.3-0.2,0.8-0.2v-0.3C96.2,23.2,95.5,23.2,94.6,23.2"/>
<path class="st0" d="M125,34.1c-0.1,0.2-0.3,0.5-0.7,0.9c-0.4,0.4-1.1,0.6-2.2,0.6c-1,0-2.3-0.1-2.4-0.2c-0.2-0.1-0.3-0.3-0.3-0.9
	v-9.7c0-0.6,0.1-0.9,0.3-1.1c0.1-0.1,0.3-0.2,0.8-0.2v-0.3c0,0-0.9,0-1.8,0s-1.8,0-1.8,0v0.3c0.4,0,0.6,0.1,0.8,0.2
	c0.1,0.1,0.3,0.4,0.3,1.1v10c0,0.6-0.1,0.8-0.3,1c-0.1,0.1-0.5,0.2-0.8,0.2v0.4c0.5,0,1.3,0,1.8,0c0.5,0,3.1,0,4.6,0
	c0.8,0,1.4,0.1,1.4,0.1c0.2-0.6,0.5-1.5,0.8-2.1C125.4,34.3,125,34.2,125,34.1"/>
<path class="st0" d="M260.7,34.1c-0.1,0.2-0.3,0.5-0.7,0.9c-0.4,0.4-1.1,0.6-2.1,0.6c-1.1,0-2.3-0.1-2.4-0.2
	c-0.2-0.1-0.3-0.3-0.3-0.9v-9.7c0-0.6,0.1-0.9,0.3-1.1c0.1-0.1,0.3-0.2,0.8-0.2v-0.3c0,0-0.9,0-1.8,0c-0.9,0-1.8,0-1.8,0v0.3
	c0.4,0,0.6,0.1,0.8,0.2c0.1,0.1,0.3,0.4,0.3,1.1v10c0,0.6-0.1,0.8-0.3,1c-0.1,0.1-0.5,0.2-0.8,0.2v0.4c0.5,0,1.3,0,1.8,0
	c0.5,0,3.1,0,4.6,0c0.8,0,1.4,0.1,1.4,0.1c0.2-0.6,0.5-1.5,0.8-2.1C261,34.3,260.7,34.2,260.7,34.1"/>
<path class="st0" d="M113.1,36c-0.3,0-0.6-0.1-0.9-0.2c-0.2-0.1-0.5-0.4-0.8-1.1c-0.2-0.5-4.4-11-4.5-11.4c-0.1-0.2-0.2-0.3-0.3-0.3
	c-0.1,0-0.2,0.1-0.3,0.3c-0.1,0.4-4.3,10.5-4.6,11.3c-0.2,0.5-0.5,1-0.6,1.2c-0.2,0.2-0.5,0.3-1,0.4l0,0.3c0,0,0.4-0.1,1.8,0
	c1.1,0,1.8,0.1,1.8,0.1s0-0.4,0-0.3c-0.3,0-0.7-0.1-0.9-0.3c-0.2-0.3-0.1-0.7,0-1.1c0.2-0.5,0.7-2.1,1-2.7c0-0.2,0.2-0.2,0.3-0.2
	h4.3c0.3,0,0.3,0.1,0.4,0.2c0.6,1.6,1.1,2.7,1.1,2.9c0.1,0.3,0.2,0.7,0.1,0.9c-0.2,0.3-0.5,0.4-1,0.4l0,0.3c0,0,0.9,0,2.1,0
	c1,0,1.7,0,2.1,0V36z M108,30.8h-3.7c-0.1,0-0.1-0.1-0.1-0.2c0-0.2,2-5.1,2-5.1s1.2,3.1,1.9,5C108.3,30.7,108.3,30.8,108,30.8"/>
<path class="st0" d="M194.4,36c-0.3,0-0.6-0.1-0.9-0.2c-0.2-0.1-0.5-0.4-0.8-1.1c-0.2-0.5-4.4-11-4.5-11.4c-0.1-0.2-0.2-0.3-0.3-0.3
	c-0.1,0-0.2,0.1-0.3,0.3c-0.1,0.4-4.3,10.5-4.6,11.3c-0.2,0.5-0.5,1-0.6,1.2c-0.2,0.2-0.5,0.3-1,0.4l0,0.3c0,0,0.9-0.1,1.8-0.1
	c0.9,0,1.8,0.1,1.8,0.1V36c-0.3,0-0.7-0.1-0.9-0.3c-0.2-0.3-0.1-0.7,0-1.1c0.2-0.5,0.7-2.1,1-2.7c0-0.2,0.2-0.2,0.3-0.2h4.3
	c0.3,0,0.3,0.1,0.4,0.2c0.6,1.6,1.1,2.7,1.1,2.9c0.1,0.3,0.2,0.7,0.1,0.9c-0.2,0.3-0.5,0.4-1,0.4l0,0.3c0,0,0.9,0,2.1,0
	c1,0,1.7,0.1,2.1,0.1V36z M189.3,30.8h-3.7c-0.1,0-0.1-0.1-0.1-0.2c0-0.2,2-5.1,2-5.1s1.2,3.1,1.9,5
	C189.5,30.7,189.5,30.8,189.3,30.8"/>
<path class="st0" d="M35.6,36c-0.3,0-0.6-0.1-0.9-0.2c-0.2-0.1-0.5-0.4-0.8-1.1c-0.2-0.5-4.4-11-4.5-11.4c-0.1-0.2-0.2-0.3-0.3-0.3
	c-0.1,0-0.2,0.1-0.3,0.3c-0.1,0.4-4.3,10.5-4.6,11.3c-0.2,0.5-0.5,1-0.6,1.2c-0.2,0.2-0.5,0.3-1,0.4l0,0.3c0,0,0.9-0.1,1.8-0.1
	c0.9,0,1.8,0.1,1.8,0.1V36c-0.3,0-0.7-0.1-0.9-0.3c-0.2-0.3-0.1-0.7,0-1.1c0.2-0.5,0.7-2.1,1-2.7c0-0.2,0.2-0.2,0.3-0.2h4.3
	c0.3,0,0.3,0.1,0.4,0.2c0.6,1.6,1.1,2.7,1.1,2.9c0.1,0.3,0.2,0.7,0.1,0.9c-0.2,0.3-0.5,0.4-1,0.4l0,0.3c0,0,0.9,0,2.1,0
	c1,0,1.7,0,2.1,0V36z M30.6,30.8h-3.7c-0.1,0-0.1-0.1-0.1-0.2c0-0.2,2-5.1,2-5.1s1.2,3.1,1.9,5C30.8,30.7,30.8,30.8,30.6,30.8"/>
<path class="st0" d="M56.3,24.8c0-0.6,0.1-0.9,0.3-1.1c0.1-0.1,0.3-0.2,0.8-0.2v-0.3c0,0-0.9,0-1.8,0c-0.9,0-1.8,0-1.8,0v0.3
	c0.4,0,0.6,0.1,0.8,0.2c0.1,0.1,0.3,0.4,0.3,1.1v10c0,0.6-0.1,0.8-0.3,1C54.3,36,54,36,53.7,36v0.4c0.5,0,1.3,0,1.8,0
	c0.5,0,1.3,0,1.8,0V36c-0.3,0-0.6-0.1-0.8-0.2c-0.2-0.2-0.3-0.4-0.3-1v-0.7V24.8z"/>
<path class="st0" d="M268.9,24.8c0-0.6,0.1-0.9,0.3-1.1c0.1-0.1,0.3-0.2,0.8-0.2v-0.3c0,0-0.9,0-1.8,0c-0.9,0-1.8,0-1.8,0v0.3
	c0.4,0,0.6,0.1,0.8,0.2c0.1,0.1,0.3,0.4,0.3,1.1v10c0,0.6-0.1,0.8-0.3,1c-0.1,0.1-0.5,0.2-0.8,0.2v0.4c0.5,0,1.3,0,1.8,0
	c0.5,0,1.3,0,1.8,0V36c-0.3,0-0.6-0.1-0.8-0.2c-0.2-0.2-0.3-0.4-0.3-1v-0.7V24.8z"/>
<path class="st0" d="M225.9,24.8c0-0.6,0.1-0.9,0.3-1.1c0.1-0.1,0.3-0.2,0.8-0.2v-0.3c0,0-0.9,0-1.8,0c-0.9,0-1.8,0-1.8,0v0.3
	c0.4,0,0.6,0.1,0.8,0.2c0.1,0.1,0.3,0.4,0.3,1.1v4.3h-8.6v-4.3c0-0.6,0.1-0.9,0.3-1.1c0.1-0.1,0.3-0.2,0.8-0.2v-0.3c0,0-0.9,0-1.8,0
	c-0.9,0-1.8,0-1.8,0v0.3c0.4,0,0.6,0.1,0.8,0.2c0.1,0.1,0.3,0.4,0.3,1.1v10c0,0.6-0.1,0.8-0.3,1c-0.1,0.1-0.5,0.2-0.8,0.2v0.4
	c0.5,0,1.3,0,1.8,0c0.5,0,1.3,0,1.8,0V36c-0.3,0-0.6-0.1-0.8-0.2c-0.2-0.2-0.3-0.4-0.3-1v-0.7V30h8.6v4.9c0,0.6-0.1,0.8-0.3,1
	c-0.1,0.1-0.5,0.2-0.8,0.2v0.4c0.5,0,1.3,0,1.8,0c0.5,0,1.3,0,1.8,0V36c-0.3,0-0.6-0.1-0.8-0.2c-0.2-0.2-0.3-0.4-0.3-1v-0.7V24.8z"
	/>
<rect x="145.6" y="1.1" class="st1" width="0.3" height="8"/>
<polygon class="st1" points="137.9,2.3 141.6,15 141.7,14.6 138.2,2.2 "/>
<polygon class="st1" points="130.9,5.4 140.3,20.4 140.3,20 131.1,5.3 "/>
<polygon class="st1" points="125,10.4 136,20.3 136.2,20.1 125.2,10.2 "/>
<polygon class="st1" points="120.8,16.8 133.6,23.1 133.8,22.9 120.9,16.6 "/>
<polygon class="st1" points="121.1,24.6 133.4,26.8 133,26.5 121.1,24.4 "/>
<polygon class="st0" points="137.7,29.5 137.4,29.8 138.3,29.7 138.3,29.5 "/>
<path class="st1" d="M136.5,32.4c0,0,0.4-0.1,0.8-0.1l2-0.8c0,0-0.2,0-0.4-0.1L136.5,32.4z"/>
<polygon class="st1" points="128.5,42.1 128.6,42.3 134.3,37.8 134.3,37.5 "/>
<polygon class="st1" points="135.8,42.1 136,42.3 137.2,40.8 136.9,40.7 "/>
<polygon class="st1" points="142.5,43.2 142.7,43.2 143.6,39 143.4,39 "/>
<polygon class="st1" points="147.7,38.9 148.6,43.2 148.9,43.2 148,38.9 "/>
<polygon class="st1" points="151.9,40.9 152.9,42.7 153.1,42.6 152.2,40.8 "/>
<polygon class="st1" points="157.3,38 162.2,41.9 162.4,41.7 157.3,37.7 "/>
<path class="st1" d="M156.3,33.3l15,6.1l0.1-0.2l-15.9-6.5C155.5,32.6,156.1,33,156.3,33.3"/>
<path class="st1" d="M152.2,31.6l2,0.8c0.3,0,0.8,0.1,0.8,0.1l-2.4-1L152.2,31.6z"/>
<polygon class="st1" points="153.3,29.8 154.4,29.9 154.2,29.6 153.3,29.5 "/>
<polygon class="st1" points="158.8,26.4 158.4,26.7 165.3,25.5 165.4,25.2 "/>
<polygon class="st1" points="157.8,22.8 157.9,23 170.4,16.9 170.2,16.7 "/>
<polygon class="st1" points="155.3,20 155.5,20.2 166.3,10.4 166.2,10.2 "/>
<polygon class="st1" points="151.1,19.9 151.2,20.3 160.5,5.4 160.3,5.3 "/>
<polygon class="st1" points="149.7,14.5 149.8,14.8 153.4,2.3 153.1,2.3 "/>
<path class="st0" d="M141.3,24.6C141.3,24.6,141.2,24.6,141.3,24.6C141.3,24.6,141.3,24.6,141.3,24.6"/>
<path class="st0" d="M147.3,13.6C147.3,13.6,147.3,13.7,147.3,13.6c0.1,0.1,0.2,0.1,0.3,0.1c-0.5-0.8-1.1-1.3-1.5-1.4
	c0,0-0.2-0.1,0,0.1C146.5,12.7,146.8,13,147.3,13.6"/>
<path class="st0" d="M145.3,12.4C145.4,12.4,145.4,12.3,145.3,12.4c-0.3,0.1-0.9,0.5-1.4,1.3c0.1,0,0.1,0,0.2,0
	C144.5,13,144.9,12.6,145.3,12.4"/>
<path class="st0" d="M140,35c-0.3-0.4-0.9-0.4-1.2,0c-0.1,0.1-0.2,0.3-0.2,0.4c0-0.2-0.1-0.3-0.2-0.4c-0.3-0.4-0.9-0.4-1.2,0
	c-0.4,0.3-0.4,0.9,0,1.2c0.1,0.1,0.3,0.2,0.4,0.2c-0.1,0-0.3,0.1-0.4,0.2c-0.4,0.3-0.4,0.9,0,1.2c0.3,0.4,0.9,0.4,1.2,0
	c0.1-0.1,0.2-0.2,0.2-0.4c0,0.1,0.1,0.3,0.2,0.4c0.3,0.4,0.9,0.4,1.2,0c0.4-0.3,0.4-0.9,0-1.2c-0.1-0.1-0.2-0.2-0.4-0.2
	c0.1,0,0.3-0.1,0.4-0.2C140.3,35.9,140.3,35.4,140,35 M139.8,36.2c-0.1,0.1-0.1,0.1-0.2,0.1l-0.1,0l-0.4,0.4l0.3,0.4l0.1,0
	c0.1,0,0.1,0.1,0.2,0.1c0.1,0.1,0.1,0.2,0.1,0.3c0,0.1-0.1,0.2-0.1,0.3c-0.2,0.2-0.4,0.2-0.6,0c0,0-0.1-0.1-0.1-0.2l0-0.1l-0.4-0.4
	l-0.4,0.3l0,0.1c0,0.1-0.1,0.1-0.1,0.2c-0.2,0.2-0.4,0.1-0.6,0c-0.1-0.1-0.1-0.2-0.1-0.3c0-0.1,0.1-0.2,0.1-0.3
	c0.1,0,0.1-0.1,0.2-0.1l0.1,0l0.4-0.4l-0.4-0.4l-0.1,0c-0.1,0-0.1-0.1-0.2-0.1c-0.2-0.2-0.1-0.4,0-0.6c0.1-0.1,0.2-0.1,0.3-0.1
	c0.1,0,0.2,0,0.3,0.1c0.1,0.1,0.1,0.1,0.1,0.2l0,0.1l0.3,0.4l0.4-0.3l0-0.1c0-0.1,0.1-0.2,0.1-0.2c0.1-0.1,0.2-0.1,0.3-0.1
	c0.1,0,0.2,0.1,0.3,0.1C140,35.7,139.9,36,139.8,36.2"/>
<path class="st0" d="M151.8,36.5c-0.1,0-0.3,0.1-0.4,0.2c-0.3,0.4-0.3,0.9,0,1.2c0.4,0.3,0.9,0.3,1.2,0c0.1-0.1,0.2-0.2,0.2-0.4
	c0,0.1,0.1,0.3,0.2,0.4c0.4,0.3,0.9,0.3,1.2,0c0.3-0.4,0.3-0.9,0-1.2c-0.1-0.1-0.3-0.2-0.4-0.2c0.1,0,0.3-0.1,0.4-0.2
	c0.3-0.4,0.3-0.9,0-1.2c-0.4-0.3-0.9-0.3-1.2,0c-0.1,0.1-0.2,0.3-0.2,0.4c0-0.2-0.1-0.3-0.2-0.4c-0.4-0.3-0.9-0.3-1.2,0
	c-0.3,0.4-0.3,0.9,0,1.2C151.5,36.4,151.7,36.5,151.8,36.5 M151.9,35.6c0.1-0.1,0.2-0.1,0.3-0.1c0.1,0,0.2,0,0.3,0.1
	c0.1,0.1,0.1,0.1,0.1,0.2l0,0.1l0.4,0.3l0.2-0.2l0.2-0.2l0-0.1c0-0.1,0-0.2,0.1-0.2c0.1-0.1,0.2-0.1,0.3-0.1c0.1,0,0.2,0,0.3,0.1
	c0.2,0.2,0.2,0.4,0,0.6c-0.1,0.1-0.1,0.1-0.2,0.1l-0.1,0l-0.4,0.4l0.4,0.4l0.1,0c0.1,0,0.1,0,0.2,0.1c0.1,0.1,0.1,0.2,0.1,0.3
	c0,0.1,0,0.2-0.1,0.3c-0.2,0.2-0.4,0.2-0.6,0c0,0-0.1-0.1-0.1-0.2l0-0.1l-0.4-0.3l-0.4,0.4l0,0.1c0,0.1-0.1,0.1-0.1,0.2
	c-0.2,0.2-0.4,0.2-0.6,0c-0.1-0.1-0.1-0.2-0.1-0.3c0-0.1,0-0.2,0.1-0.3c0.1-0.1,0.1-0.1,0.2-0.1l0.1,0l0.3-0.4l-0.4-0.4l-0.1,0
	c-0.1,0-0.2,0-0.2-0.1C151.8,36,151.8,35.8,151.9,35.6"/>
<path class="st0" d="M141.3,24.6C141.3,24.6,141.3,24.6,141.3,24.6C141.3,24.6,141.2,24.6,141.3,24.6"/>
<path class="st0" d="M141.3,24.6C141.3,24.6,141.2,24.6,141.3,24.6C141.3,24.6,141.3,24.6,141.3,24.6"/>
<path class="st0" d="M155.8,25.7l1.3,1.4l2.1-1.9l-2.8-3l-0.2,0c0,0-0.3,0.3-0.5,0.5c0,0-0.2-0.2-0.2-0.2l0.4-0.4
	c0.2-0.2,0.3-0.5-0.4-1.2c-0.6-0.7-1-0.6-1.2-0.5l-5.8,5.4c-0.2-0.5-0.2-1.2-0.2-1.3c1.1-0.1,1.4-0.3,1.5-0.4c0,0,0,0,0,0l0.5-0.8
	l-0.1-0.3c0-0.2,0-0.4,0.1-0.6l0.4-1.3c0,0-0.1-0.7-0.1-1.3c0-0.2-0.1-0.3-0.2-0.4c0.1-0.1,0.3-0.3,0.3-0.5c0-0.2-0.2-0.4-0.4-0.6
	c0-0.3-0.1-0.7-0.2-1c0-0.2-0.1-0.4-0.1-0.6c0.1-0.1,0.2-0.3,0.2-0.4c0-0.3-0.2-0.5-0.6-0.7c-0.1-0.3-0.3-0.7-0.4-1
	c0.1-0.1,0.1-0.2,0.1-0.3c0-0.3-0.3-0.5-0.7-0.7c-0.7-1.1-1.6-1.8-2.5-1.9v-0.8h0.6v-0.4h-0.6V9.8h-0.5v0.7h-0.6v0.4h0.6v0.8
	c-0.9,0.1-1.8,0.9-2.5,1.9c-0.4,0.1-0.7,0.4-0.7,0.7c0,0.1,0,0.2,0.1,0.3c-0.2,0.3-0.3,0.6-0.4,1c-0.4,0.2-0.6,0.4-0.6,0.7
	c0,0.1,0,0.3,0.2,0.5c0,0.2-0.1,0.4-0.1,0.5c-0.1,0.4-0.1,0.7-0.2,1c-0.3,0.1-0.4,0.3-0.4,0.6c0,0.2,0.1,0.4,0.3,0.5c0,0,0,0,0,0
	c-0.1,0-0.2,0.1-0.2,0.3c-0.1,0.5-0.2,1.3-0.2,1.3l0.5,1.4c0,0.1,0,0.3,0,0.4l-0.1,0.3l0.5,1c0.1,0.2,0.4,0.4,1.7,0.5
	c0,0.2,0,0.8-0.2,1.3l-5.7-5.3c-0.2-0.2-0.5-0.2-1.2,0.5c-0.6,0.7-0.5,1-0.4,1.2c0,0,0.2,0.2,0.4,0.4c0,0-0.2,0.2-0.2,0.2
	c-0.2-0.2-0.6-0.6-0.6-0.6l-0.1,0c0,0,0,0,0,0l-2.7,2.9l0,0h0l0,0.3l2,1.8l1.3-1.4c0,0-0.6-0.5-0.8-0.7c0.1-0.1,0.2-0.3,0.3-0.3
	c0.2,0.2,0.8,0.7,0.8,0.7s0.5-0.6,0.7-0.7c0.1,0.1,0.2,0.1,0.2,0.2c-0.2,0.2-0.6,0.6-0.6,0.6l-0.1,0.2c0,0,0.5,0.5,0.7,0.7
	c-0.1,0.1-0.2,0.2-0.3,0.3c-0.2-0.2-0.7-0.7-0.7-0.7l-0.2,0.1l-0.5,0.6l-0.5,0.6v0l-0.1,0.2l2.1,1.9l2.8-3c0,0-0.5-0.5-0.7-0.6
	c0,0,0.2-0.2,0.2-0.2c0.4,0.4,1.5,1.4,2.4,2.3c-0.4,0.4-1.3,0.8-2.2,0.9h0c-0.4,0-0.6,0.1-0.6,0.5v1.2c0,0.3,0.1,0.5,0.6,0.5
	c1.1,0.1,2,0.5,2.4,1l-1.4,1.3c-0.2-0.1-0.3-0.1-0.5-0.1c-0.5,0-1,0.2-1.4,0.5c-0.2-0.2-0.4-0.3-0.6-0.4c-0.7-0.4-1.7-0.3-2.3,0.3
	c-0.4,0.4-0.6,0.9-0.6,1.5c0,0.3,0.1,0.6,0.2,0.9c0.1,0.2,0.2,0.4,0.3,0.6c-0.4,0.4-0.6,0.9-0.6,1.4c0,0.5,0.2,0.9,0.5,1.3
	c0.1,0.1,0.1,0.2,0.2,0.3c0.4,0.4,0.9,0.7,1.5,0.7c0.5,0,1-0.2,1.4-0.5c0.4,0.3,0.8,0.5,1.4,0.6c0.6,0,1.1-0.2,1.5-0.6
	c0.4-0.4,0.7-1,0.7-1.6c0-0.5-0.2-0.9-0.5-1.3c0.3-0.4,0.5-0.8,0.6-1.4v-0.1c0-0.2,0-0.4-0.1-0.6l0.9-0.9c0.2,0.6,0.1,1.7-0.1,2.6
	c-0.2,0.8-0.4,1.2-0.7,1.8h0.3c0.3-0.7,0.5-1.1,0.6-1.7h0.2c-0.2,0.5-0.3,1.1-0.6,1.7h0.2c0.3-0.7,0.4-1.1,0.6-1.7h0.2
	c-0.2,0.7-0.3,1.1-0.5,1.7h0.2c0.1-0.6,0.3-1.1,0.5-1.7h0.2c-0.1,0.5-0.3,1.1-0.5,1.7h0.3c0.3-0.7,0.4-1.1,0.6-1.7h0.3
	c-0.1,0.6-0.3,1.1-0.6,1.7h0.3c0.3-0.7,0.5-1.4,0.6-1.9c0.2-1.2,0.1-3.2-0.5-4.1l1-0.9c0.2,0.2,0.8,0.8,1,1
	c-0.5,0.9-0.6,2.8-0.4,4.1c0.1,0.5,0.4,1.3,0.6,1.9h0.3c-0.3-0.6-0.4-1.2-0.6-1.7h0.3c0.2,0.6,0.3,1.1,0.6,1.8h0.3
	c-0.3-0.6-0.4-1.2-0.6-1.8h0.2c0.2,0.6,0.4,1.2,0.5,1.7h0.3c-0.2-0.7-0.3-1.1-0.5-1.7h0.2c0.2,0.6,0.3,1.1,0.6,1.7h0.3
	c-0.3-0.6-0.4-1.2-0.6-1.7h0.2c0.2,0.6,0.4,1.1,0.7,1.7h0.3c-0.3-0.6-0.5-1.2-0.7-1.8c-0.2-0.7-0.2-1.8,0-2.4
	c0.5,0.5,0.5,0.5,0.8,0.7c0,0.1,0,0.2,0,0.3v0.1c0,0.3,0.1,0.6,0.2,0.9c0.1,0.2,0.2,0.5,0.4,0.7c-0.3,0.4-0.5,0.8-0.5,1.3
	c0,0.5,0.2,0.9,0.5,1.3c0.1,0.1,0.2,0.3,0.3,0.4c0.8,0.8,2.1,0.8,2.9,0c0.4,0.3,0.9,0.5,1.4,0.5c0.6,0,1.1-0.3,1.5-0.7
	c0.4-0.4,0.6-0.9,0.6-1.5c0-0.5-0.2-1-0.6-1.4c0.3-0.4,0.5-0.8,0.5-1.3c0-0.6-0.3-1.2-0.7-1.6c-0.1-0.1-0.2-0.2-0.3-0.2
	c-0.8-0.7-2-0.6-2.7,0.1c-0.2-0.1-0.4-0.2-0.6-0.3c-0.3-0.2-0.6-0.2-1-0.2c-0.1,0-0.3,0-0.4,0.1l-1.2-1.1c0.4-0.5,1.4-1,2.4-1.1
	c0.3,0,0.6-0.3,0.6-0.6v-1.3c0-0.3-0.1-0.5-0.6-0.5c-1-0.1-1.9-0.5-2.3-0.9l-0.1-0.1l2.5-2.3c0,0,0.2,0.2,0.2,0.2
	c-0.2,0.2-0.5,0.5-0.5,0.5l0,0.3l2.8,3l2-1.9l-1.3-1.4l-0.2,0.1c0,0-0.4,0.4-0.6,0.6c-0.1-0.1-0.1-0.1-0.2-0.2
	c0.2-0.2,0.8-0.7,0.8-0.7s-0.5-0.6-0.7-0.8c0.1-0.1,0.3-0.2,0.3-0.3c0.2,0.2,0.7,0.7,0.7,0.7s0.6-0.5,0.8-0.7
	c0.1,0.1,0.2,0.2,0.2,0.2c-0.2,0.2-0.6,0.6-0.6,0.6L155.8,25.7z M149.8,23.6C149.7,23.6,149.7,23.6,149.8,23.6
	c-0.1-0.1-0.1-0.5-0.1-0.5s-0.1,0.3-0.1,0.4c0,0-0.1,0-0.1,0c0,0-0.1-0.3-0.1-0.3c0,0,0.3-0.3,0.3-0.4c0,0,0.2,0.5,0.2,0.5
	C149.9,23.2,149.8,23.5,149.8,23.6 M149.3,23.3c-0.1,0-0.2,0.1-0.2,0.1c0,0,0,0-0.1,0c0,0-0.2-0.2-0.3-0.2l0.1-0.2l-0.2-0.3
	c0.1-0.1,0.2-0.3,0.2-0.3c0,0,0.3,0,0.3,0c0,0,0.2,0.3,0.2,0.4l-0.2,0.2L149.3,23.3z M147.9,23c-0.1,0.1-0.3,0.2-0.3,0.2
	c-0.1,0-0.1-0.1-0.2-0.2l0-0.1l-0.2-0.3c0.1-0.2,0.3-0.3,0.3-0.4c0,0,0.2,0,0.2,0c0,0,0.2,0.3,0.3,0.4l-0.1,0.1L147.9,23z
	 M145.3,22.9L145.3,22.9l-0.1-0.2c0.1-0.2,0.3-0.4,0.3-0.5h0.3c0,0,0.3,0.4,0.3,0.4l-0.1,0.1l0,0.1c-0.1,0.1-0.4,0.3-0.4,0.3
	C145.7,23.2,145.3,22.9,145.3,22.9 M144.2,23.1c-0.1,0.1-0.2,0.1-0.3,0.2c0,0-0.1-0.1-0.3-0.2c0,0-0.1,0-0.1-0.1l0.1-0.1l-0.2-0.2
	c0.1-0.2,0.3-0.4,0.3-0.4h0.3c0,0,0.1,0.2,0.2,0.3l-0.2,0.3L144.2,23.1z M143,22.8c0,0-0.1,0.4-0.1,0.4c0,0-0.1,0-0.2,0
	c0-0.1-0.1-0.2-0.1-0.3c0,0,0.4-0.6,0.4-0.6c0,0,0.4,0.5,0.4,0.5c0,0-0.1,0.3-0.1,0.3c0,0-0.1,0-0.1,0c0,0,0,0,0,0
	C143.2,23.1,143,22.8,143,22.8 M142.6,23.2c0,0-0.1,0.1-0.1,0.1c0,0-0.1,0.1-0.1,0.1c0,0-0.1-0.1-0.2-0.1l0.1-0.2l-0.2-0.3
	c0.1-0.2,0.2-0.3,0.2-0.4c0,0,0.3,0,0.3,0c0,0,0.1,0.1,0.2,0.3l-0.2,0.3L142.6,23.2z M141.8,21l-0.2,0l0-0.1c0,0-0.1-0.3-0.2-0.6
	c0-0.4,0-0.8,0.1-1.3c0,0,0,0,0,0c0.2,0,0.3-0.1,0.3-0.3c0,0,0-0.1,0-0.1c0.1,0,0.1,0,0.2-0.1c-0.1,0.6-0.1,1.1-0.1,1.6L141.8,21
	L141.8,21z M142.3,19.8c0.1,0.2,0.5,1,0.5,1c0,0-0.3,0.8-0.4,1c-0.1-0.2-0.4-0.9-0.5-0.9C141.9,20.9,142.2,20,142.3,19.8
	 M143.8,18.6c0.2,0,0.3-0.1,0.4-0.3c0.4,0,0.9,0,1.5,0s1,0,1.5,0c0.1,0.2,0.2,0.3,0.4,0.3c0.1,0,0.2-0.1,0.2-0.2c0.1,0,0.3,0,0.4,0
	c0.1,0.8,0.2,1.5,0.2,2.2c0,0.1,0,0.1,0,0.2l-0.2,0l-0.5-1.1l0,0.1l-0.2-0.4l-0.6,1.4l0,0l-0.5,0l-0.5-1.1l0,0.1l-0.2-0.4l-0.6,1.4
	l-0.5,0l-0.5-1.1l0,0.1l-0.2-0.4l-0.6,1.4l-0.4,0l-0.4-1l0,0.1l-0.2-0.4l0,0.1c0-0.3,0.1-0.7,0.1-1c0.3-0.1,0.8-0.1,1.3-0.2
	C143.7,18.5,143.7,18.5,143.8,18.6 M143.7,18.1c0-0.1,0.1-0.3,0.2-0.2c0.1,0,0.2,0.1,0.2,0.3c0,0.1-0.1,0.2-0.2,0.2
	C143.7,18.4,143.7,18.2,143.7,18.1 M147.4,17.8c0.1,0,0.2,0.1,0.2,0.2c0,0.1,0,0.3-0.2,0.3c-0.1,0-0.2-0.1-0.2-0.2
	C147.2,18,147.3,17.9,147.4,17.8 M149.6,20.9c0,0-0.4,0.7-0.5,0.9c-0.1-0.2-0.3-1-0.4-1c0,0,0.4-0.8,0.5-1
	C149.3,20,149.5,20.9,149.6,20.9 M149.3,18.6c0.1,0,0.1,0,0.1,0c0,0,0,0.1,0,0.1c0,0.2,0.2,0.3,0.3,0.3c0,0,0,0,0,0
	c0,0.5,0.1,0.9,0.1,1.3l-0.2,0.5l-0.3-1v0C149.4,19.4,149.3,19,149.3,18.6 M149.3,22L149.3,22l0.2-0.4l0.1,0.7l0.1-0.3l0,0.3
	c0,0.1,0,0.3,0,0.3l-0.1,0.1l-0.2,0.2l-0.1-0.2c0.1,0,0.2-0.1,0.2-0.2C149.6,22.2,149.5,22.1,149.3,22 M148.9,22.3L148.9,22.3
	l-0.2,0.3l-0.1-0.1l0,0l-0.1-0.2c0-0.1,0-0.3,0-0.4l0,0.1l0.2-0.7l0.2,0.7c-0.1,0-0.2,0.1-0.2,0.2C148.8,22.2,148.9,22.3,148.9,22.3
	 M149.1,22c0.1,0,0.2,0.1,0.2,0.2c0,0.1-0.1,0.2-0.2,0.2c-0.1,0-0.2-0.1-0.2-0.2C149,22.1,149,22,149.1,22 M148.6,20.7L148.6,20.7
	c-0.1-0.1-0.1-0.1-0.1-0.2c0-0.7-0.1-1.4-0.2-2.1c0.2,0,0.4,0.1,0.6,0.1c0.1,0.4,0.1,0.8,0.1,1.2L148.6,20.7z M148.6,20.8
	c0,0.1-0.2,0.7-0.3,0.9c-0.1-0.2-0.2-0.9-0.2-1C148.2,20.8,148.5,20.8,148.6,20.8 M148.2,22.5L148.2,22.5l-0.2-0.1l0,0l0-0.1
	c0,0,0.1-0.1,0.1-0.2c0-0.1-0.1-0.2-0.2-0.3c0,0,0,0,0,0l0.4-0.8l0.1,0.6c0,0.2,0,0.4-0.1,0.7C148.2,22.3,148.2,22.4,148.2,22.5
	L148.2,22.5z M146,21.9C146,21.9,146,21.9,146,21.9l0.4-0.8l0.3,0.9l0.1-0.3l0.1,0.3l0.3-0.8l0.2,0.6c-0.1,0-0.2,0.1-0.2,0.3
	c0,0.1,0.1,0.2,0.1,0.2l-0.2,0.3l-0.1-0.1l0,0l-0.2-0.3l-0.5,0.5l-0.2-0.3h0c0.1-0.1,0.1-0.1,0.1-0.2C146.2,22,146.1,21.9,146,21.9
	 M145.7,21.7c-0.1-0.2-0.5-1-0.5-1.1c0,0,0.4-1,0.5-1.2c0.1,0.2,0.5,1.1,0.5,1.2C146.2,20.7,145.8,21.6,145.7,21.7 M145.9,22
	c0,0.1-0.1,0.2-0.2,0.2c-0.1,0-0.2-0.1-0.2-0.2c0-0.1,0.1-0.2,0.2-0.2C145.8,21.8,145.9,21.9,145.9,22 M146.3,20.7
	c0.1,0,0.6,0,0.7,0c0,0.1-0.3,0.8-0.4,1C146.6,21.5,146.3,20.8,146.3,20.7 M147.3,22c0-0.1,0.1-0.2,0.2-0.2c0.1,0,0.2,0.1,0.2,0.2
	s-0.1,0.2-0.2,0.2C147.4,22.2,147.3,22.1,147.3,22 M147.5,21.7c-0.1-0.2-0.4-1-0.4-1c0,0,0.4-0.9,0.5-1.1c0.1,0.2,0.4,1.1,0.5,1.1
	C147.9,20.7,147.6,21.5,147.5,21.7 M145.1,20.7c0,0.1-0.3,0.8-0.3,1c-0.1-0.2-0.3-0.9-0.4-1C144.5,20.7,145,20.7,145.1,20.7
	 M143.7,22.2l-0.3,0.4l-0.4-0.4l-0.2,0.3l-0.1-0.1h0c0-0.1,0.1-0.1,0.1-0.2c0-0.1-0.1-0.2-0.2-0.3l0.3-0.7l0.2,0.7l0.1-0.3l0.1,0.3
	l0.2-0.9l0.3,0.6c-0.1,0-0.2,0.2-0.2,0.3C143.6,22.1,143.6,22.2,143.7,22.2 M142.8,20.8c0.1,0,0.4,0,0.5-0.1c0,0.1-0.2,0.8-0.3,1
	C143,21.5,142.8,20.9,142.8,20.8 M143.9,21.8c0.1,0,0.2,0.1,0.2,0.2c0,0.1-0.1,0.2-0.2,0.2c-0.1,0-0.2-0.1-0.2-0.2
	C143.7,21.9,143.8,21.8,143.9,21.8 M143.9,21.7c-0.1-0.2-0.4-1-0.5-1c0,0,0.4-0.9,0.5-1.1c0.1,0.2,0.4,1,0.5,1.1
	C144.3,20.7,144,21.5,143.9,21.7 M142.4,22.2c0,0.1-0.1,0.2-0.2,0.2c-0.1,0-0.2-0.1-0.2-0.2c0-0.1,0.1-0.2,0.2-0.2
	C142.4,22,142.4,22.1,142.4,22.2 M141.9,22.2l0.1-0.8l0,0c0,0.2,0,0.3,0,0.5C142,22,142,22.1,141.9,22.2c0.1,0,0.1,0.1,0.2,0.2
	c0,0,0,0,0,0.1c0,0.1-0.1,0.2-0.2,0.3l-0.2-0.3l-0.1,0.2c0-0.3-0.1-0.6-0.1-1l0.2,0.6l0.1-0.4L141.9,22.2z M144.7,22.3
	c0,0,0.5,0.6,0.5,0.6v0c0,0-0.2,0.3-0.2,0.3h-0.2c0,0-0.2-0.5-0.2-0.5s-0.1,0.4-0.2,0.5h-0.2c0,0-0.1-0.2-0.1-0.3
	C144.2,22.9,144.7,22.3,144.7,22.3 M145.2,22.7l-0.5-0.5l-0.3,0.4l-0.1-0.1h0c0.1-0.1,0.1-0.1,0.1-0.2c0-0.1-0.1-0.2-0.2-0.3
	c0,0,0,0,0,0l0.3-0.8l0.3,0.9l0.1-0.3L145,22l0.3-0.9l0.3,0.6c-0.1,0-0.2,0.1-0.2,0.3c0,0.1,0,0.2,0.1,0.2L145.2,22.7z M146.2,22.9
	c0,0,0.5-0.5,0.5-0.6c0,0,0.5,0.6,0.5,0.6c0,0-0.1,0.2-0.1,0.3h-0.2h0c0-0.1-0.1-0.5-0.1-0.5s-0.2,0.4-0.2,0.5h-0.2
	C146.4,23.2,146.2,22.9,146.2,22.9 M148.4,22.4C148.4,22.4,148.4,22.4,148.4,22.4c0.1,0.2,0.4,0.6,0.4,0.6c0,0,0,0.1-0.1,0.2
	c0,0,0,0.1,0,0.1c0,0-0.1,0-0.1,0c0-0.1-0.1-0.5-0.1-0.5s-0.2,0.3-0.2,0.4c0,0,0,0,0,0c0,0-0.1,0-0.1,0c0,0,0,0,0,0
	c0,0-0.1-0.2-0.1-0.3c0,0,0-0.1,0-0.1C148,22.8,148.4,22.4,148.4,22.4 M150,21.7c0-0.1,0-0.3-0.1-0.4c-0.1,0.2-0.2,0.5-0.3,0.7
	c0-0.2-0.1-0.8-0.1-0.9c0.1,0,0.2,0,0.3,0.1c0-0.2,0-0.3,0-0.3c0,0,0.2-0.5,0.3-0.9c0,0.4,0.1,1,0.1,1C150.2,21,150.1,21.4,150,21.7
	 M150.1,18.8c0,0.1-0.1,0.2-0.3,0.3l0-0.1c0.1,0,0.1-0.1,0.1-0.2c0,0,0-0.1,0-0.1c0,0,0-0.1,0-0.1c0,0,0,0,0-0.1
	C150.1,18.6,150.1,18.7,150.1,18.8 M149.8,18.4c0.1,0,0.2,0.1,0.2,0.2c0,0.1,0,0.2-0.1,0.3c-0.1,0-0.2-0.1-0.2-0.2
	C149.6,18.5,149.7,18.4,149.8,18.4 M149.5,16.1c0,0,0-0.1,0-0.1c0.1,0.1,0.1,0.1,0.1,0.2c0,0.1-0.1,0.2-0.2,0.3l0-0.1v0
	C149.4,16.3,149.5,16.2,149.5,16.1C149.5,16.2,149.5,16.1,149.5,16.1 M149.2,15.7c0.1,0,0.2,0.1,0.2,0.2c0,0.1,0,0.2-0.1,0.3
	c-0.1,0-0.2-0.1-0.2-0.2C149.1,15.9,149.1,15.8,149.2,15.7 M148.8,14.2c0,0.1,0,0.2-0.2,0.2l0-0.1c0,0,0.1-0.1,0.1-0.2
	c0,0,0-0.1,0-0.1h0C148.8,14.1,148.8,14.2,148.8,14.2 M148.4,13.8c0.1,0,0.2,0.1,0.2,0.2c0,0.1,0,0.2-0.1,0.2
	c-0.1,0-0.2-0.1-0.2-0.2C148.3,14,148.3,13.9,148.4,13.8 M148.4,14.4C148.5,14.4,148.5,14.4,148.4,14.4c0.3,0.3,0.5,0.8,0.6,1.2
	c-0.1,0-0.1,0.1-0.1,0.2c-0.3-0.1-0.8-0.2-1.3-0.2v0c0,0,0-0.1,0-0.1c0,0,0.1,0,0.1,0c0,0,0,0,0,0c-0.3-0.7-0.5-1.1-0.7-1.4
	c0,0,0.1-0.1,0.1-0.1c0.2,0,0.3,0,0.4,0.1c0.3,0.4,0.5,1,0.8,1.6c0.1,0,0.2,0,0.3,0.1c-0.2-0.6-0.5-1.1-0.8-1.6
	c0.1,0,0.2,0.1,0.3,0.1C148.1,14.3,148.3,14.4,148.4,14.4 M147.4,15.9c-0.1,0-0.2-0.1-0.2-0.2c0-0.1,0-0.3,0.2-0.3
	c0.1,0,0.2,0.1,0.2,0.2C147.5,15.7,147.5,15.8,147.4,15.9 M146.9,14c-0.1,0-0.2-0.1-0.2-0.2c0-0.1,0-0.2,0.1-0.3
	c0.1,0,0.2,0.1,0.2,0.2C147,13.8,147,14,146.9,14 M145.7,11.9c0.8,0,1.8,0.7,2.5,1.9c0,0,0,0.1-0.1,0.1c-0.3-0.1-0.6-0.1-1-0.2v0
	c0-0.2-0.2-0.3-0.3-0.3c-0.1,0-0.1,0.1-0.2,0.1c-0.3-0.4-0.6-0.6-0.8-0.7c-0.2-0.1-0.1,0,0,0c0.1,0.1,0.4,0.3,0.6,0.7
	c0,0,0.1,0,0.1,0c0,0,0,0.1,0,0.1c-0.3,0-0.6,0-0.8,0c-0.3,0-0.6,0-0.9,0c0-0.2-0.1-0.3-0.2-0.3c-0.2,0-0.3,0.1-0.3,0.3v0
	c-0.4,0-0.7,0.1-1,0.2c0,0,0-0.1-0.1-0.1C143.9,12.7,144.8,11.9,145.7,11.9 M144.7,13.8c0,0.1-0.1,0.2-0.2,0.2
	c-0.1,0-0.2-0.1-0.1-0.3c0-0.1,0.1-0.2,0.2-0.2C144.7,13.5,144.7,13.6,144.7,13.8 M142.7,14c0-0.1,0.1-0.2,0.2-0.2
	c0.1,0,0.1,0.1,0.1,0.2c0,0.1-0.1,0.2-0.2,0.2C142.8,14.3,142.7,14.2,142.7,14 M142.7,14c0,0,0,0.1,0,0.1c0,0.1,0,0.2,0.1,0.2
	l-0.1,0.1c-0.1-0.1-0.1-0.1-0.1-0.2C142.6,14.1,142.6,14.1,142.7,14 M142.9,14.4C142.9,14.4,142.9,14.4,142.9,14.4
	c0.2,0.1,0.4-0.1,0.4-0.3c0.1,0,0.2-0.1,0.3-0.1c-0.3,0.5-0.6,1-0.8,1.6h0c0.1,0,0.1,0,0.2,0c0.2-0.6,0.5-1.1,0.8-1.6
	c0.1,0,0.3,0,0.5-0.1c0,0.1,0.1,0.2,0.2,0.2c0.1,0,0.3-0.1,0.3-0.2c0.3,0,0.6,0,0.9,0c0.3,0,0.6,0,0.9,0c0,0.1,0.1,0.2,0.2,0.2
	c0.2,0.3,0.4,0.6,0.5,1.1c0,0-0.1,0-0.1,0c-0.1,0-0.2,0.2-0.3,0.3c-0.4,0-0.9,0-1.3,0c-0.4,0-0.9,0-1.3,0c0-0.2-0.1-0.3-0.2-0.3
	c-0.2,0-0.3,0.1-0.4,0.4v0c-0.4,0-0.8,0.1-1.1,0.2c-0.1,0-0.1,0-0.2,0c0-0.1-0.1-0.1-0.1-0.2C142.5,15.2,142.6,14.8,142.9,14.4
	 M144.2,15.6c0,0.1-0.1,0.2-0.2,0.2c-0.1,0-0.2-0.1-0.2-0.3c0-0.1,0.1-0.2,0.2-0.2C144.2,15.4,144.3,15.5,144.2,15.6 M141.9,15.9
	c0-0.1,0.1-0.2,0.2-0.2c0.1,0,0.2,0.1,0.1,0.3c0,0.1-0.1,0.2-0.2,0.2C141.9,16.2,141.9,16.1,141.9,15.9 M141.8,16c0,0,0,0.2,0,0.2
	c0,0,0,0.1,0.1,0.1c0,0,0,0,0,0l0,0.1c-0.1-0.1-0.2-0.2-0.2-0.2C141.7,16.1,141.8,16,141.8,16 M141.8,17.2c0.1-0.3,0.1-0.6,0.2-0.9
	c0,0,0,0,0,0c0.2,0,0.3-0.1,0.3-0.3v0c0.1,0,0.2,0,0.3-0.1c-0.1,0.4-0.3,0.8-0.4,1.3c-0.1,0.3-0.1,0.7-0.2,1c0,0,0.1,0,0.1,0
	c0,0,0,0,0.1,0c0-0.3,0.1-0.6,0.2-0.9c0.1-0.5,0.2-1,0.4-1.4c0.2-0.1,0.5-0.1,0.9-0.1c0,0.1,0.1,0.2,0.2,0.3c0.2,0,0.3-0.1,0.4-0.3
	c0.4,0,0.8,0,1.3,0c0.5,0,0.9,0,1.3,0c0.1,0.2,0.2,0.3,0.4,0.3c0.1,0,0.2-0.1,0.2-0.2c0.1,0.3,0.2,0.7,0.4,1.5
	c0,0.2,0.1,0.4,0.1,0.6c0,0,0.1,0,0.1,0c0.1,0,0.1,0,0.2,0c0-0.2-0.1-0.5-0.1-0.7c-0.1-0.6-0.3-1.1-0.4-1.6c0.2,0,0.4,0.1,0.6,0.1
	c0.2,0.4,0.3,0.9,0.4,1.4c0.1,0.3,0.1,0.6,0.2,0.9c0.1,0,0.2,0,0.3,0.1c0-0.3-0.1-0.6-0.2-1c-0.1-0.5-0.2-0.9-0.3-1.3
	c0.1,0,0.1,0,0.2,0v0c0,0.2,0.2,0.3,0.3,0.3c0,0,0,0,0,0c0.1,0.3,0.2,0.6,0.2,0.9c0.1,0.4,0.1,0.7,0.2,1.1c0,0,0,0-0.1,0
	c-0.1,0-0.1,0.1-0.2,0.1c-0.4-0.1-1-0.2-1.7-0.3c0,0,0,0,0-0.1c0-0.2-0.2-0.4-0.4-0.4c-0.2,0-0.3,0.2-0.3,0.4c-0.4,0-0.9,0-1.4,0
	c-0.5,0-1,0-1.4,0c0-0.2-0.1-0.4-0.3-0.4c-0.2,0-0.4,0.1-0.4,0.4c0,0,0,0,0,0.1c-0.7,0.1-1.3,0.2-1.7,0.3c0-0.1-0.1-0.1-0.2-0.1
	c0,0,0,0-0.1,0C141.7,18,141.8,17.6,141.8,17.2 M141.4,18.6c0-0.1,0.1-0.2,0.2-0.2c0.1,0,0.2,0.1,0.1,0.3c0,0.1-0.1,0.2-0.2,0.2
	C141.4,18.9,141.4,18.7,141.4,18.6 M141.3,18.6C141.3,18.6,141.3,18.6,141.3,18.6c0,0.2,0.1,0.3,0.2,0.4l0,0.1
	c-0.2-0.1-0.3-0.2-0.3-0.3C141.2,18.7,141.3,18.7,141.3,18.6 M141.1,20.9c0,0,0.1-0.6,0.2-1c0.1,0.3,0.3,0.9,0.3,0.9
	c0,0,0,0.1,0,0.2c0.1,0,0.3,0,0.3-0.1c0,0.1-0.1,0.7-0.1,0.9c-0.1-0.1-0.2-0.5-0.3-0.7c0,0.2-0.1,0.3-0.1,0.5
	C141.3,21.5,141.1,20.9,141.1,20.9 M141.7,23.1c0,0-0.1,0.4-0.1,0.4l-0.1,0c0-0.1-0.1-0.3-0.1-0.3c0,0,0.3-0.5,0.3-0.5
	c0,0,0.3,0.4,0.3,0.4c0,0-0.1,0.3-0.1,0.3c0,0-0.1,0-0.1,0C141.8,23.4,141.7,23.1,141.7,23.1 M141.9,23.8c0-0.2,1.7-0.4,3.8-0.4
	c2.1,0,3.8,0.2,3.8,0.4s-1.7,0.4-3.8,0.4C143.6,24.2,141.9,24.1,141.9,23.8 M147.6,26.6l-0.2,0.2c-0.1-0.2-0.1-0.3-0.2-0.5l-0.3,0.3
	c0.1,0.2,0.1,0.3,0.2,0.4l-0.2,0.2c-0.5-0.9-0.6-1.8-0.6-2.6c0.1,0,0.2,0,0.2,0c0,0.2,0,0.4,0,0.5l0.3-0.1c0-0.2,0-0.3,0-0.4
	c0.1,0,0.2,0,0.3,0c0,0.2,0,0.3,0,0.5l0.3-0.1c0-0.1,0-0.3,0-0.4c0.1,0,0.2,0,0.2,0c0,0.4,0.1,1.3,0.3,1.7l-0.1,0.1
	c-0.1-0.2-0.1-0.3-0.2-0.5l-0.3,0.3C147.5,26.3,147.5,26.5,147.6,26.6 M145.5,24.6c0.1,0,0.1,0,0.2,0c0.1,0,0.3,0,0.4,0
	c0,0.3,0,1.8,0.7,2.8l-1,0.9l-0.9-0.9C145.5,26.4,145.5,24.9,145.5,24.6 M143.6,24.5c0.1,0,0.2,0,0.2,0c0,0.1,0,0.3,0,0.4l0.3,0.1
	c0-0.2,0-0.3,0-0.5c0.1,0,0.2,0,0.3,0c0,0.1,0,0.3,0,0.4l0.3,0.1c0-0.2,0-0.4,0-0.6c0.1,0,0.2,0,0.3,0c0,0.9-0.1,1.8-0.6,2.6
	l-0.2-0.2c0.1-0.1,0.1-0.3,0.2-0.4l-0.2-0.2c-0.1,0.2-0.1,0.3-0.2,0.5l-0.2-0.2c0.1-0.1,0.1-0.3,0.2-0.4l-0.3-0.3
	c0,0.2-0.1,0.3-0.2,0.5l-0.2-0.2C143.5,25.6,143.6,25,143.6,24.5 M139.2,26l-2.4,2.6l-1.5-1.4l0.8-0.9l0.8,0.7l0.8-0.8l-0.8-0.7
	l0.7-0.8l-0.8-0.7l-0.7,0.7l-0.8-0.7l-0.8,0.8l0.8,0.7l-0.8,0.9l-1.5-1.4l2.4-2.6L136,23l0.5-0.5l2.6,2.4l-0.5,0.5L139.2,26z
	 M142,27.9l0.2,0.2c-0.4,0.3-0.8,0.6-1.3,0.8c-0.2,0-0.3-0.1-0.5-0.1C141.1,28.5,141.7,28.2,142,27.9 M142.3,29.5
	c-0.1-0.1-0.2-0.1-0.3-0.2c0.3-0.2,0.6-0.4,0.9-0.6l0.2,0.2C142.9,29.1,142.7,29.3,142.3,29.5 M143.5,29.3c0.2,0.2,0.4,0.4,0.6,0.6
	l-0.6,0.5c-0.2-0.2-0.4-0.4-0.7-0.6C143.1,29.6,143.3,29.4,143.5,29.3 M141.7,29.2c-0.1-0.1-0.2-0.1-0.4-0.2
	c0.4-0.2,0.8-0.4,1.1-0.7l0.2,0.2C142.4,28.8,142,29,141.7,29.2 M139.4,30.5c-0.1,0-0.2-0.1-0.2-0.2v-1.2c0-0.1,0-0.2,0.2-0.2
	c1.3,0,3,0.9,3.8,1.8l-0.2,0.2c-0.1-0.1-0.3-0.3-0.4-0.4l-0.2,0.2c0.2,0.1,0.3,0.3,0.5,0.4l-0.2,0.2c-0.1-0.1-0.3-0.3-0.5-0.4
	l-0.2,0.2c0.2,0.1,0.3,0.3,0.5,0.4l-0.2,0.2C141.6,31.1,140.5,30.6,139.4,30.5 M144.1,30.2c0.1-0.1,0.4,0.2,0.6,0.4c0,0,0,0,0,0
	l-3.4,3.1c-0.1-0.1-0.1-0.1-0.2-0.2c-0.1-0.1-0.3-0.2-0.4-0.3L144.1,30.2z M141.2,36.4c-0.1,0.1-0.1,0.1-0.2,0.2
	c0.1,0,0.1,0.1,0.2,0.2c0.7,0.7,0.6,1.9-0.1,2.6c-0.7,0.7-1.9,0.6-2.6-0.1c-0.1-0.1-0.1-0.1-0.1-0.2c-0.1,0.1-0.1,0.1-0.2,0.2
	c-0.7,0.7-1.9,0.6-2.6-0.1c-0.7-0.7-0.6-1.9,0.1-2.6c0.1-0.1,0.1-0.1,0.2-0.2c-0.1-0.1-0.1-0.1-0.2-0.2c-0.7-0.7-0.6-1.9,0.1-2.6
	c0.7-0.7,1.9-0.7,2.6,0.1c0.1,0.1,0.1,0.1,0.2,0.2c0-0.1,0.1-0.1,0.2-0.2c0.7-0.7,1.9-0.7,2.6,0.1C142,34.6,141.9,35.7,141.2,36.4
	 M144.7,36.5h-1.6c0.3-0.9,0.2-2.2,0-2.9l0.2-0.2c0.1,0.2,0.1,0.3,0.1,0.5l0.3-0.2c0-0.2-0.1-0.4-0.2-0.5l0.2-0.2
	c0.1,0.2,0.1,0.4,0.2,0.6l0.3-0.2c-0.1-0.2-0.1-0.4-0.2-0.6l0.2-0.2C144.9,33.5,145,35.1,144.7,36.5 M145.1,31.3l-3.3,3
	c-0.1-0.1-0.2-0.2-0.3-0.4l3.4-3.1C145.1,31,145.2,31.2,145.1,31.3 M148.1,36.5h-1.6c-0.2-1.3-0.1-3.1,0.4-4l0.2,0.2
	c-0.1,0.2-0.1,0.3-0.2,0.5l0.3,0.2c0.1-0.2,0.1-0.3,0.2-0.5l0.2,0.2c-0.1,0.1-0.1,0.3-0.1,0.5l0.3,0.2c0-0.2,0.1-0.3,0.1-0.5
	l0.3,0.3C147.9,34.4,148,35.7,148.1,36.5 M152.6,33.8c0.1,0.1,0.1,0.1,0.2,0.2c0.1-0.1,0.1-0.1,0.2-0.2c0.7-0.7,1.8-0.8,2.6-0.1
	c0.7,0.7,0.8,1.9,0.1,2.6c-0.1,0.1-0.1,0.1-0.2,0.2c0.1,0,0.1,0.1,0.2,0.2c0.7,0.7,0.8,1.8,0.1,2.6c-0.7,0.7-1.8,0.8-2.6,0.1
	c-0.1-0.1-0.1-0.1-0.2-0.2c0,0.1-0.1,0.1-0.2,0.2c-0.7,0.7-1.8,0.8-2.6,0.1c-0.7-0.7-0.8-1.8-0.1-2.6c0.1-0.1,0.1-0.1,0.2-0.2
	c-0.1,0-0.1-0.1-0.2-0.1c-0.7-0.7-0.8-1.8-0.1-2.6C150.7,33.1,151.9,33.1,152.6,33.8 M150.5,33.2c-0.1,0-0.4,0.2-0.7,0.4l-13.4-12.4
	c-0.1,0.1-0.2,0.3-0.2,0.3l13.4,12.4c-0.2,0.2-0.2,0.4-0.2,0.4L136,21.8c-0.1-0.1,0.1-0.4,0.4-0.7c0.3-0.3,0.6-0.5,0.7-0.4
	L150.5,33.2z M148.8,28.5l0.2-0.2c0.3,0.3,0.7,0.5,1.1,0.7c-0.1,0.1-0.3,0.1-0.4,0.2l0,0C149.4,29,149.1,28.8,148.8,28.5
	 M149.4,29.4c-0.1,0.1-0.2,0.1-0.3,0.2c-0.3-0.2-0.6-0.4-0.8-0.6l0.2-0.2C148.8,29,149.1,29.2,149.4,29.4 M148.8,29.8
	c-0.3,0.2-0.5,0.4-0.8,0.7l-0.6-0.6l0.7-0.7l0.1,0.1C148.3,29.4,148.5,29.6,148.8,29.8 M152.2,29.1v1.1c0,0.1-0.1,0.2-0.2,0.2
	c-1.1,0.1-2.2,0.6-2.7,1.2l-0.3-0.3c0.1-0.1,0.3-0.2,0.4-0.4l-0.3-0.2c-0.1,0.1-0.3,0.2-0.4,0.3l-0.2-0.2c0.1-0.1,0.3-0.2,0.4-0.3
	l-0.2-0.2c-0.1,0.1-0.3,0.2-0.4,0.3l-0.2-0.2c0.8-0.9,2.5-1.7,3.8-1.7C152.2,28.9,152.2,29,152.2,29.1 M151.1,28.7
	c-0.2,0-0.3,0.1-0.5,0.1c-0.5-0.2-1-0.4-1.4-0.8l0.2-0.2C149.8,28.2,150.4,28.6,151.1,28.7 M147,29.6c-0.1-0.1-0.2-0.2-0.3-0.3
	l8.4-7.8c0,0-0.1-0.1-0.2-0.3l-8.5,7.8c-0.3-0.3-0.6-0.5-0.6-0.5l8.5-7.9c0.1-0.1,0.4,0.1,0.7,0.4c0.3,0.3,0.5,0.6,0.4,0.7L147,29.6
	z M156.8,24.8l-0.8-0.8l-0.8,0.7l-0.7-0.7l-0.8,0.8l0.7,0.8l-0.8,0.7l0.7,0.8l0.8-0.7l0.8,0.9l-1.5,1.4l-2.4-2.6l0.7-0.6l-0.5-0.5
	l2.6-2.4l0.5,0.5l0.7-0.6l2.4,2.6l-1.5,1.4l-0.8-0.9L156.8,24.8z"/>
<path class="st0" d="M145.7,23.7c-1.5,0-2.7,0.1-2.7,0.2c0,0.1,1.2,0.2,2.7,0.2c1.5,0,2.7-0.1,2.7-0.2
	C148.4,23.8,147.2,23.7,145.7,23.7"/>
<polygon class="st1" points="116.8,31.7 114.5,32 114.5,32.3 116.8,32 "/>
<polygon class="st1" points="120.6,31.6 136.7,29.9 136.5,29.7 120.6,31.3 "/>
<path class="st1" d="M164.5,30.7l-9.2-1l-0.2,0.2l9.5,1C164.5,30.8,164.5,30.7,164.5,30.7"/>
<path class="st1" d="M168.7,31.1c0,0.1,0,0.2,0,0.3l4.4,0.5l0-0.3L168.7,31.1z"/>
<polygon class="st1" points="123.7,37.5 120,39.1 120.1,39.3 124.1,37.6 "/>
<path class="st1" d="M125.9,36.7l-0.1,0.3l9.3-3.7c0.3-0.3,0.7-0.5,0.7-0.5L125.9,36.7z"/>
</svg>
